<?xml version="1.0" encoding="UTF-8" standalone="no"?>
<svg id="svg3058" xmlns:rdf="http://www.w3.org/1999/02/22-rdf-syntax-ns#" xmlns="http://www.w3.org/2000/svg" height="100%" viewBox="0 0 4030 5032" width="100%" version="1.1" xmlns:cc="http://creativecommons.org/ns#" xmlns:xlink="http://www.w3.org/1999/xlink" xmlns:dc="http://purl.org/dc/elements/1.1/">
 <metadata id="metadata3064">
  <rdf:RDF>
   <cc:Work rdf:about="">
    <dc:format>image/svg+xml</dc:format>
    <dc:type rdf:resource="http://purl.org/dc/dcmitype/StillImage"/>
    <dc:title/>
   </cc:Work>
  </rdf:RDF>
 </metadata>
 <g id="defs">
  <image id="iconmotorcycle" width="36" xlink:href="iconmotorcycle.svg" height="36" y="-18" x="-18" class="icon"/>
  <image id="iconhandicapped" width="36" xlink:href="iconhandicapped.svg" height="36" y="-18" x="-18" class="icon"/>
  <image id="iconbike" width="36" xlink:href="iconbike.svg" height="36" y="-18" x="-18" class="icon"/>
  <image id="iconvendor" width="36" xlink:href="iconvendor.svg" height="36" y="-18" x="-18" class="icon"/>
  <image id="iconloading" width="36" xlink:href="iconloading.svg" height="36" y="-18" x="-18" class="icon"/>
  <image id="iconelectric" width="36" xlink:href="iconelectric.svg" height="36" y="-18" x="-18" class="icon"/>
  <image id="iconzip" width="36" xlink:href="iconzip.svg" height="36" y="-18" x="-18" class="icon"/>
  <image id="iconenterprise" width="36" xlink:href="iconenterprise.svg" height="36" y="-18" x="-18" class="icon"/>
  <image id="icon247" width="36" xlink:href="icon247.svg" height="36" y="-18" x="-18"/>
  <image id="icon24" width="36" xlink:href="icon24.svg" height="36" y="-18" x="-18"/>
  <g id="iconlot11" class="icon">
   <text style="word-spacing:0px;letter-spacing:0px;writing-mode:lr-tb;text-anchor:middle;text-align:center;" line-height="100%" font-family="Arial" space="preserve" font-size="20px" height="20" width="36" font-stretch="normal" font-variant="normal" y="-7" x="0" font-weight="bold" font-style="normal" fill="#000">11</text>
  </g>
  <g id="iconlot12" class="icon">
   <text style="word-spacing:0px;letter-spacing:0px;writing-mode:lr-tb;text-anchor:middle;text-align:center;" line-height="100%" font-family="Arial" space="preserve" font-size="20px" height="20" width="36" font-stretch="normal" font-variant="normal" y="7" x="0" font-weight="bold" font-style="normal" fill="#000">12</text>
  </g>
  <g id="iconlot13" class="icon">
   <text style="word-spacing:0px;letter-spacing:0px;writing-mode:lr-tb;text-anchor:middle;text-align:center;" line-height="100%" font-family="Arial" space="preserve" font-size="20px" height="20" width="36" font-stretch="normal" font-variant="normal" y="7" x="0" font-weight="bold" font-style="normal" fill="#000">13</text>
  </g>
  <g id="iconlot14" class="icon">
   <text style="word-spacing:0px;letter-spacing:0px;writing-mode:lr-tb;text-anchor:middle;text-align:center;" line-height="100%" font-family="Arial" space="preserve" font-size="20px" height="20" width="36" font-stretch="normal" font-variant="normal" y="7" x="0" font-weight="bold" font-style="normal" fill="#000">14</text>
  </g>
  <g id="iconlot20" class="icon">
   <use xlink:href="#icon24"/>
   <text style="word-spacing:0px;letter-spacing:0px;writing-mode:lr-tb;text-anchor:middle;text-align:center;" line-height="100%" space="preserve" font-weight="bold" font-size="20px" height="20" width="36" font-stretch="normal" font-variant="normal" y="7" x="0" font-family="Arial" font-style="normal" fill="#000000">20</text>
  </g>
  <g id="iconlot21" class="icon">
   <use xlink:href="#icon247"/>
   <text style="word-spacing:0px;letter-spacing:0px;writing-mode:lr-tb;text-anchor:middle;text-align:center;" line-height="100%" font-family="Arial" space="preserve" font-size="20px" height="20" width="36" font-stretch="normal" font-variant="normal" y="7" x="0" font-weight="bold" font-style="normal" fill="#000">21</text>
  </g>
  <g id="iconlot22" class="icon">
   <use xlink:href="#icon24"/>
   <text style="word-spacing:0px;letter-spacing:0px;writing-mode:lr-tb;text-anchor:middle;text-align:center;" line-height="100%" font-family="Arial" space="preserve" font-size="20px" height="20" width="36" font-stretch="normal" font-variant="normal" y="7" x="0" font-weight="bold" font-style="normal" fill="#000">22</text>
  </g>
  <g id="iconlot23" height="20" class="icon">
   <use xlink:href="#icon247"/>
   <text style="word-spacing:0px;letter-spacing:0px;writing-mode:lr-tb;text-anchor:middle;text-align:center;" line-height="100%" space="preserve" font-weight="bold" font-size="20px" height="20" width="36" font-stretch="normal" font-variant="normal" y="7" x="0" font-family="Arial" font-style="normal" fill="#000000">23</text>
  </g>
  <g id="iconlot24" class="icon">
   <text style="word-spacing:0px;letter-spacing:0px;writing-mode:lr-tb;text-anchor:middle;text-align:center;" line-height="100%" font-family="Arial" space="preserve" font-size="20px" height="20" width="36" font-stretch="normal" font-variant="normal" y="7" x="0" font-weight="bold" font-style="normal" fill="#000">24</text>
  </g>
  <g id="iconlot25" class="icon">
   <text style="word-spacing:0px;letter-spacing:0px;writing-mode:lr-tb;text-anchor:middle;text-align:center;" line-height="100%" font-family="Arial" space="preserve" font-size="20px" height="20" width="36" font-stretch="normal" font-variant="normal" y="7" x="0" font-weight="bold" font-style="normal" fill="#000">25</text>
  </g>
  <g id="iconlot26" class="icon">
   <text style="word-spacing:0px;letter-spacing:0px;writing-mode:lr-tb;text-anchor:middle;text-align:center;" line-height="100%" font-family="Arial" space="preserve" font-size="20px" height="20" width="36" font-stretch="normal" font-variant="normal" y="7" x="0" font-weight="bold" font-style="normal" fill="#000">26</text>
  </g>
  <g id="iconlot27" class="icon">
   <text style="word-spacing:0px;letter-spacing:0px;writing-mode:lr-tb;text-anchor:middle;text-align:center;" line-height="100%" font-family="Arial" space="preserve" font-size="20px" height="20" width="36" font-stretch="normal" font-variant="normal" y="7" x="0" font-weight="bold" font-style="normal" fill="#000">27</text>
  </g>
  <g id="iconlot28" class="icon">
   <use xlink:href="#icon247"/>
   <text style="word-spacing:0px;letter-spacing:0px;writing-mode:lr-tb;text-anchor:middle;text-align:center;" line-height="100%" font-family="Arial" space="preserve" font-size="20px" height="20" width="36" font-stretch="normal" font-variant="normal" y="7" x="0" font-weight="bold" font-style="normal" fill="#000">28</text>
  </g>
  <g id="iconlot29" class="icon">
   <use xlink:href="#icon247"/>
   <text style="word-spacing:0px;letter-spacing:0px;writing-mode:lr-tb;text-anchor:middle;text-align:center;" line-height="100%" font-family="Arial" space="preserve" font-size="20px" height="20" width="36" font-stretch="normal" font-variant="normal" y="7" x="0" font-weight="bold" font-style="normal" fill="#000">29</text>
  </g>
  <g id="iconlot30" class="icon">
   <text style="word-spacing:0px;letter-spacing:0px;writing-mode:lr-tb;text-anchor:middle;text-align:center;" line-height="100%" font-family="Arial" space="preserve" font-size="20px" height="20" width="36" font-stretch="normal" font-variant="normal" y="7" x="0" font-weight="bold" font-style="normal" fill="#000">30</text>
  </g>
  <g id="iconlot31" class="icon">
   <text style="word-spacing:0px;letter-spacing:0px;writing-mode:lr-tb;text-anchor:middle;text-align:center;" line-height="100%" font-family="Arial" space="preserve" font-size="20px" height="20" width="36" font-stretch="normal" font-variant="normal" y="7" x="0" font-weight="bold" font-style="normal" fill="#000">31</text>
  </g>
  <g id="iconlot32" class="icon">
   <text style="word-spacing:0px;letter-spacing:0px;writing-mode:lr-tb;text-anchor:middle;text-align:center;" line-height="100%" font-family="Arial" space="preserve" font-size="20px" height="20" width="36" font-stretch="normal" font-variant="normal" y="7" x="0" font-weight="bold" font-style="normal" fill="#000">32</text>
  </g>
  <g id="iconlot33" class="icon">
   <text style="word-spacing:0px;letter-spacing:0px;writing-mode:lr-tb;text-anchor:middle;text-align:center;" line-height="100%" font-family="Arial" space="preserve" font-size="20px" height="20" width="36" font-stretch="normal" font-variant="normal" y="7" x="0" font-weight="bold" font-style="normal" fill="#000">33</text>
  </g>
  <g id="iconlot34" class="icon">
   <text style="word-spacing:0px;letter-spacing:0px;writing-mode:lr-tb;text-anchor:middle;text-align:center;" line-height="100%" font-family="Arial" space="preserve" font-size="20px" height="20" width="36" font-stretch="normal" font-variant="normal" y="7" x="0" font-weight="bold" font-style="normal" fill="#000">34</text>
  </g>
  <g id="iconlot35" class="icon">
   <use xlink:href="#icon247"/>
   <text style="word-spacing:0px;letter-spacing:0px;writing-mode:lr-tb;text-anchor:middle;text-align:center;" line-height="100%" font-family="Arial" space="preserve" font-size="20px" height="20" width="36" font-stretch="normal" font-variant="normal" y="7" x="0" font-weight="bold" font-style="normal" fill="#000">35</text>
  </g>
  <g id="iconlot36" class="icon">
   <use xlink:href="#icon247"/>
   <text style="word-spacing:0px;letter-spacing:0px;writing-mode:lr-tb;text-anchor:middle;text-align:center;" line-height="100%" font-family="Arial" space="preserve" font-size="20px" height="20" width="36" font-stretch="normal" font-variant="normal" y="7" x="0" font-weight="bold" font-style="normal" fill="#000">36</text>
  </g>
  <g id="iconlot39" class="icon">
   <use xlink:href="#icon247"/>
   <text style="word-spacing:0px;letter-spacing:0px;writing-mode:lr-tb;text-anchor:middle;text-align:center;" line-height="100%" font-family="Arial" space="preserve" font-size="20px" height="20" width="36" font-stretch="normal" font-variant="normal" y="7" x="0" font-weight="bold" font-style="normal" fill="#000">39</text>
  </g>
  <g id="iconlot41" class="icon">
   <text style="word-spacing:0px;letter-spacing:0px;writing-mode:lr-tb;text-anchor:middle;text-align:center;" line-height="100%" font-family="Arial" space="preserve" font-size="20px" height="20" width="36" font-stretch="normal" font-variant="normal" y="7" x="0" font-weight="bold" font-style="normal" fill="#000">41</text>
  </g>
  <g id="iconlot42" class="icon">
   <text style="word-spacing:0px;letter-spacing:0px;writing-mode:lr-tb;text-anchor:middle;text-align:center;" line-height="100%" font-family="Arial" space="preserve" font-size="20px" height="20" width="36" font-stretch="normal" font-variant="normal" y="7" x="0" font-weight="bold" font-style="normal" fill="#000">42</text>
  </g>
  <g id="iconlot43" class="icon">
   <text style="word-spacing:0px;letter-spacing:0px;writing-mode:lr-tb;text-anchor:middle;text-align:center;" line-height="100%" font-family="Arial" space="preserve" font-size="20px" height="20" width="36" font-stretch="normal" font-variant="normal" y="7" x="0" font-weight="bold" font-style="normal" fill="#000">43</text>
  </g>
  <g id="iconlot44" class="icon">
   <use xlink:href="#icon24"/>
   <text style="word-spacing:0px;letter-spacing:0px;writing-mode:lr-tb;text-anchor:middle;text-align:center;" line-height="100%" space="preserve" font-weight="bold" font-size="20px" height="20" width="36" font-stretch="normal" font-variant="normal" y="7" x="0" font-family="Arial" font-style="normal" fill="#000">44</text>
  </g>
  <g id="iconlot45" class="icon">
   <text style="word-spacing:0px;letter-spacing:0px;writing-mode:lr-tb;text-anchor:middle;text-align:center;" line-height="100%" space="preserve" font-weight="bold" font-size="20px" height="20" width="36" font-stretch="normal" font-variant="normal" y="7" x="0" font-family="Arial" font-style="normal" fill="#000">45</text>
  </g>
  <g id="iconlot46" class="icon">
   <text style="word-spacing:0px;letter-spacing:0px;writing-mode:lr-tb;text-anchor:middle;text-align:center;" line-height="100%" font-family="Arial" space="preserve" font-size="20px" height="20" width="36" font-stretch="normal" font-variant="normal" y="7" x="0" font-weight="bold" font-style="normal" fill="#000">46</text>
  </g>
  <g id="iconlot47" class="icon">
   <use xlink:href="#icon247"/>
   <text style="word-spacing:0px;letter-spacing:0px;writing-mode:lr-tb;text-anchor:middle;text-align:center;" line-height="100%" space="preserve" font-weight="bold" font-size="20px" height="20" width="36" font-stretch="normal" font-variant="normal" y="7" x="0" font-family="Arial" font-style="normal" fill="#000000">47</text>
  </g>
  <g id="iconlot49" class="icon">
   <use xlink:href="#icon24"/>
   <text style="word-spacing:0px;letter-spacing:0px;writing-mode:lr-tb;text-anchor:middle;text-align:center;" line-height="100%" font-family="Arial" space="preserve" font-size="20px" height="20" width="36" font-stretch="normal" font-variant="normal" y="7" x="0" font-weight="bold" font-style="normal" fill="#000">49</text>
  </g>
  <g id="iconlot50" class="icon">
   <use xlink:href="#icon247"/>
   <text style="word-spacing:0px;letter-spacing:0px;writing-mode:lr-tb;text-anchor:middle;text-align:center;" line-height="100%" space="preserve" font-weight="bold" font-size="20px" height="20" width="36" font-stretch="normal" font-variant="normal" y="7" x="0" font-family="Arial" font-style="normal" fill="#000000">50</text>
  </g>
  <g id="iconlot52" class="icon">
   <text style="word-spacing:0px;letter-spacing:0px;writing-mode:lr-tb;text-anchor:middle;text-align:center;" line-height="100%" font-family="Arial" space="preserve" font-size="20px" height="20" width="36" font-stretch="normal" font-variant="normal" y="7" x="0" font-weight="bold" font-style="normal" fill="#000">52</text>
  </g>
  <g id="iconlot54" class="icon">
   <use xlink:href="#icon247"/>
   <text style="word-spacing:0px;letter-spacing:0px;writing-mode:lr-tb;text-anchor:middle;text-align:center;" line-height="100%" font-family="Arial" space="preserve" font-size="20px" height="20" width="36" font-stretch="normal" font-variant="normal" y="7" x="0" font-weight="bold" font-style="normal" fill="#000">54</text>
  </g>
  <g id="iconlot62" class="icon">
   <text style="word-spacing:0px;letter-spacing:0px;writing-mode:lr-tb;text-anchor:middle;text-align:center;" line-height="100%" space="preserve" font-weight="bold" font-size="20px" height="20" width="36" font-stretch="normal" font-variant="normal" y="7" x="0" font-family="Arial" font-style="normal" fill="#000">62</text>
  </g>
  <g id="iconlot63" class="icon">
   <text style="word-spacing:0px;letter-spacing:0px;writing-mode:lr-tb;text-anchor:middle;text-align:center;" line-height="100%" font-family="Arial" space="preserve" font-size="20px" height="20" width="36" font-stretch="normal" font-variant="normal" y="7" x="0" font-weight="bold" font-style="normal" fill="#000">63</text>
  </g>
  <g id="iconlot64" class="icon">
   <text style="word-spacing:0px;letter-spacing:0px;writing-mode:lr-tb;text-anchor:middle;text-align:center;" line-height="100%" font-family="Arial" space="preserve" font-size="20px" height="20" width="36" font-stretch="normal" font-variant="normal" y="7" x="0" font-weight="bold" font-style="normal" fill="#000">64</text>
  </g>
  <g id="iconlot65" class="icon">
   <text style="word-spacing:0px;letter-spacing:0px;writing-mode:lr-tb;text-anchor:middle;text-align:center;" line-height="100%" font-family="Arial" space="preserve" font-size="20px" height="20" width="36" font-stretch="normal" font-variant="normal" y="7" x="0" font-weight="bold" font-style="normal" fill="#000">65</text>
  </g>
  <g id="iconlot66" class="icon">
   <text style="word-spacing:0px;letter-spacing:0px;writing-mode:lr-tb;text-anchor:middle;text-align:center;" line-height="100%" font-family="Arial" space="preserve" font-size="20px" height="20" width="36" font-stretch="normal" font-variant="normal" y="7" x="0" font-weight="bold" font-style="normal" fill="#000">66</text>
  </g>
  <g id="iconlot67" class="icon">
   <use xlink:href="#icon247"/>
   <text style="word-spacing:0px;letter-spacing:0px;writing-mode:lr-tb;text-anchor:middle;text-align:center;" line-height="100%" font-family="Arial" space="preserve" font-size="20px" height="20" width="36" font-stretch="normal" font-variant="normal" y="7" x="0" font-weight="bold" font-style="normal" fill="#000">67</text>
  </g>
  <g id="iconlot68" class="icon">
   <text style="word-spacing:0px;letter-spacing:0px;writing-mode:lr-tb;text-anchor:middle;text-align:center;" line-height="100%" font-family="Arial" space="preserve" font-size="20px" height="20" width="36" font-stretch="normal" font-variant="normal" y="7" x="0" font-weight="bold" font-style="normal" fill="#000">68</text>
  </g>
  <g id="iconlot71" class="icon">
   <text style="word-spacing:0px;letter-spacing:0px;writing-mode:lr-tb;text-anchor:middle;text-align:center;" line-height="100%" font-family="Arial" space="preserve" font-size="20px" height="20" width="36" font-stretch="normal" font-variant="normal" y="7" x="0" font-weight="bold" font-style="normal" fill="#000">71</text>
  </g>
 </g>
<!-- /def -->
 <g id="coloredlayer" stroke="#000" stroke-width="1px" stroke-linecap="butt">
  <g id="yellowlayer" stroke-linejoin="miter" class="layer" fill="#FF0">
   <path id="lot11" d="m461.75,3971.9,222.55,15.992-0.66632,32.649,53.305,3.9979-10.661,169.24-301.84-24.654-5.9968,64.632-23.321-5.9968,6.6631-63.3,16.658-1.3326,9.9947-155.92,30.65-1.3326z" class="lot"/>
   <g id="lot12" class="lot">
    <path d="m356.48,1546.5-71.962-11.994s-17.473,117.78-2.6653,267.86c14.794,149.93,29.318,174.57,29.318,174.57l429.11,9.3284-25.629-78.383-114.85,28.765-16.691-77.845-181.31-3.1364s-80.415-19.815-75.96-179.9c3.4142-122.69,30.65-129.26,30.65-129.26z"/>
    <path d="m676.31,1769.1,10.661,26.652-51.972,11.994,3.9979,35.981s-219.15,4.0331-237.21-5.3305c-35.981-18.657-44.643-61.301-44.643-61.301l-3.3316-11.994s69.317,14.322,174.57,17.324c110.6,3.1542,148.39-12.855,148.39-12.855z"/>
    <path class="center" transform="translate(26,0)" fill="#e9afaf" d="m459.04,1898.1a15.992,15.992,0,1,1,-31.983,0,15.992,15.992,0,1,1,31.983,0z"/>
   </g>
   <g id="lot13" class="lot">
    <path d="m3658.7,1179.4,31.983,9.9947s-10.083,29.929-31.983,65.299c-13.498,21.799-47.308,45.976-47.308,45.976l-20.656-23.987s23.987-17.99,39.312-40.645,28.652-56.637,28.652-56.637z"/>
    <path d="m3298.9,1369.9s65.799,27.078,96.282,30.984c30.958,3.9668,86.954-7.6626,86.954-7.6626l-7.9958-17.324s-58.636-1.999-79.958-8.6621-86.621-32.649-86.621-32.649l-8.6621,35.315"/>
    <path d="m3525.5,1170.7s-46.642,34.648-57.303,59.302-29.318,97.948-29.318,97.948l-68.63-25.32s-19.989-17.99-19.323-34.648c0.6663-16.658,27.985-67.298,32.649-74.627,17.661-32.838,43.992-69.974,73.961-73.294,21.322-1.999,38.646,5.9968,43.977,12.66,5.3305,6.6632,23.987,37.98,23.987,37.98z"/>
    <path class="center" transform="translate(-8.6641949,12.666314)" fill="#e9afaf" d="m3454.2,1189a15.658,15.658,0,1,1,-31.317,0,15.658,15.658,0,1,1,31.317,0z"/>
   </g>
  </g>
  <g id="greenlayer" stroke-linejoin="miter" class="layer" fill="#090">
   <g id="lot25" class="lot">
    <path d="m677.46,1770.1,20.683,68.237,85.75-25.442,10.365-12.25,18.846-6.5962-19.788-58.423z"/>
    <path d="m586.94,1877.8,234.64-54.654,114.02,369.39-60.308,20.731-28.269-89.519s-8.2715-15.892-22.891-18.399c-14.734-2.5259-22.339,4.2641-22.339,4.2641l-25.442-93.289s-1.7296-4.8984-10.365-8.9519c-10.316-4.8421-18.846-1.4135-18.846-1.4135l-32.981-98-114.02,29.212z"/>
    <path class="center" transform="translate(-10,-56)" fill="#e9afaf" d="m815.1,1945a12.25,12.25,0,1,1,-24.5,0,12.25,12.25,0,1,1,24.5,0z"/>
   </g>
   <path id="lot26" d="m827.84,1158.6,108.65-22.816,38.323,172.85-103.2,23.987z" class="lot"/>
   <path id="lot27" d="m1683.2,1160.3,51.827-22.616-53.914-122.22-50.16,21.995z" class="lot"/>
   <path id="lot33" d="m887.53,3283.6,123.93-3.3315,22.655,16.658,15.878,256.85-145.26,5.9969z" class="lot"/>
   <g id="lot34" class="lot">
    <path d="m1991,3073.1,203.56-63.966,14.159,39.479-55.471,18.605-10.162-27.267-17.124,6.3586,12.746,35.824-55.97,18.324,23.202,70.258-78.292,25.32z"/>
    <path class="center" transform="translate(-5.3305085,1.3326271)" fill="#e9afaf" d="m2069.6,3100.7a14.326,14.326,0,1,1,-28.652,0,14.326,14.326,0,1,1,28.652,0z"/>
   </g>
  </g>
  <g id="purplelayer" class="layer" fill="#90C">
   <path id="lot22" stroke-linejoin="miter" class="lot" d="m914.84,3685.4,142.6,1.999-35.648,403.45-132.26,0.6663z"/>
   <g id="lot44" class="lot">
    <path d="m1651.4,638.48,117.13,4.9304-15.044,39.22-39.896,22.282-61.157-1.3563-17.6-21.926z"/>
    <path stroke-linejoin="miter" d="m1836.4,570.52,150.59-4.6642s13.474,18.7,35.153,25.316c28.553,8.7139,50.334,2.8235,50.334,2.8235l68.196,13.676,35.628,48.88-1.097,56.677,23.321,27.319,2.9817,69.297-85.49,1.6895-159.74,63.318,2.7277-158.41-126.6-33.982z"/>
    <path d="m2483.7,1062.3,90.933-7.3029c24.161,2.141,26.999,20.274,28.505,42.404l2.9447,41.933c0.3666,10.3-1.2657,15.603-9.8943,19.906l-109.31,14.606c-10.437-0.5588-16.876-7.7808-19.317-17.668l-7.3029-56.303c-2.514-22.187,8.6314-34.712,23.442-37.575z"/>
    <path d="m2023.6,644.99a12.66,12.66,0,1,1,-25.32,0,12.66,12.66,0,1,1,25.32,0z" fill="#e9afaf" class="center"/>
   </g>
   <g id="lot49" stroke-linejoin="miter" class="lot">
    <path d="m2502.3,1671.3,115.91-11.779,12.25,142.29-58.424,4.7115-0.9424,30.154-96.587,7.0673-4.7115-57.952,36.985-3.0625z"/>
    <path d="m2603.1,1860.5,71.112-16.228-9.5473-33.625-71.588,17.605z"/>
    <path d="m2691.4,1766.6,135.59-27.985-0.1666,28.985-34.648,13.493s0.9995,15.325,6.1634,19.156c5.164,3.8313,90.892,7.4115,90.892,7.4115l8.2452,5.4183,6.3606-3.0625,65.078-2.9376,39.396,12.077-16.575,51.972-26.986-6.6631-54.638,1.166-1.8323,68.214,82.123,0.1666-14.659,141.59-43.81-0.6663-0.6663-30.317-31.65,0.6663-0.8329,16.325,5.1639,13.993s0.3332,29.651-3.165,40.478c-3.4981,10.828-4.9973,28.652-3.3315,35.981,1.6657,7.3294,19.49,70.796,19.49,70.796l-0.069-22.138,51.639-0.1618-4.0954,114.42-64.133-1.166-0.6663-105.44s-17.824-57.303-16.658-71.462c1.1661-14.159,6.8298-23.654,6.4966-33.982s-0.1666-23.654-3.8313-33.316c-3.6647-9.6616-4.1645-11.161-4.1645-11.161l2.8319-124.43-4.4976-112.77-85.954-6.6631s-9.9947-5.6637-12.826-11.161c-2.8319-5.4971-7.4961-16.824-7.4961-16.824l-77.626,14.992z"/>
    <path d="m2643.8,2043.3,95.409-16.726,14.606,54.654-62.192,12.25-36.986-6.361z"/>
    <path d="m2798.8,2184.7,22.38-0.7068,33.923,140.87-22.145,7.5388z"/>
    <path d="m2851.7,2455,12.486,2.5913-4.0637,77.564,20.848,6.8317,6.8318-74.678,12.721,3.8871-0.1178,13.899,43.641,7.5385-5.4772,71.144-90.756-9.5998z"/>
    <path d="m2737.9,2404.1,20.617-12.187-40.606-179.29s-9.1286-10.85-20.558-20.929c-11.43-10.079-25.826-19.472-35.03-23.719-17.419-8.0395-38.696-13.738-38.696-13.738l-14.679,79.234s16.693,15.8,34.766,8.7597c21.103-8.2204,16.894-32.69,16.894-32.69l-15.034-0.062-11.933-22.675,4.2721-14.223,37.354,16.971,20.989,28.985z"/>
    <path class="center" transform="translate(327.67551,238.88125)" fill="#e9afaf" d="m2592,1725.1a13.326,13.326,0,1,1,-26.652,0,13.326,13.326,0,1,1,26.652,0z"/>
   </g>
   <g id="lot20" class="lot">
    <path stroke-linejoin="miter" d="m1782.8,3281.2,112.85-26.518,23.154,96.282,50.965-11.112,19.811,75.216-74.184,18.834-15.081-62.282-29.984,7.9957,2.3321,9.2451-53.108,11.157-2.0965-8.1338-33.22,8.6032-2.8604-12.542,33.099-7.7989-1.8408-8.349,52.198-12.17,2.1655,8.1624,31.15-8.3289-22.376-88.089-5.9941,1.5756,2.038,8.7644-84.725,20.324z"/>
    <path class="center" transform="translate(-9.9947031,26.657839)" fill="#e9afaf" d="m1959,3352.9a13.993,13.993,0,1,1,-27.985,0,13.993,13.993,0,1,1,27.985,0z"/>
   </g>
  </g>
  <g id="bluelayer" stroke-linejoin="miter" class="layer" fill="#06F">
   <path id="lot21" d="m914.97,3627.3,146.62,2.5175-4.7924,58.471-143.32-2.6652z" class="lot"/>
   <path id="lot23" d="m3242.5,846.42,61.651-5.5326,14.659,114.61-97.282,9.3284-1.9181-23.388,11.603-0.9423-0.9423-7.9958,19.526-1.8846z" class="lot"/>
   <g id="lot24" class="lot">
    <path d="m3223.5,1376.8,1.999-20.656-62.172-19.219-3.3315,25.986z"/>
    <path d="m3691.9,1189.3,31.835,7.8006s-2.3794,35.543-32.364,80.187c-26.98,40.17-57.636,54.304-57.636,54.304l-22.655-30.65s27.319-15.325,46.642-47.308c13.888-21.334,22.848-41.678,34.178-64.333z"/>
    <path d="m3719.2,1361.2c19.434,5.7769,18.374,24.04,9.7741,38.062-7.9223,12.918-46.351,33.664-59.635,34.982-20.936,2.0762-36.809-3.8226-32.193-16.064,5.7941-15.365,68.134-61.117,82.054-56.98z"/>
    <path d="m3268.2,712.96,21.988,0-3.3315,69.297-23.987-1.3326z"/>
    <path d="m3377.5,649.66,11.327-13.993,103.28,9.3284-9.9947,16.658z"/>
    <path d="m3644.7,790.91-0.8329-25.819-26.153,0-1.4991-26.153,116.44-4.6642,0,53.305z"/>
    <path d="m3559.4,605.01,177.24,35.981-192.2,97.134s13.636-18.509,22.298-52.491c7.5708-29.701-23.321-41.978-23.321-41.978z"/>
    <path class="center" transform="translate(7.3283899,19.995763)" fill="#e9afaf" d="m3282.9,718.29a13.326,13.326,0,1,1,-26.653,0,13.326,13.326,0,1,1,26.653,0z"/>
   </g>
   <path id="lot28" d="m3408,819.73,43.144-13.16,6.4966,22.655-45.476,13.16z" class="lot"/>
   <g id="lot29" class="lot">
    <path d="m2524.3,2077,72.794-21.673,16.255,53.476-50.532,12.132-27.268-5.0058z"/>
    <path d="m2614.9,2372.7,32.627,30.036-9.1877,10.601-32.038-29.447z"/>
    <path d="m2691.2,2552.7,14.48-102.48-32.092,12.812-12.798,86.473z"/>
    <path d="m2762.9,2430.4,4.7095,109.87-31.283-0.3047-2.4987-96.782z"/>
    <path d="m2567.3,2139.1-0.7068,10.366s-27.798-1.5707-41.697-4.8296-34.63-16.844-34.63-16.844l6.8318-8.0096s19.206,12.778,32.184,15.426c13.784,2.8122,38.019,3.8913,38.019,3.8913z"/>
    <path class="center" transform="translate(0,4)" fill="#e9afaf" d="m2761.9,2446.4a12.327,12.327,0,1,1,-24.654,0,12.327,12.327,0,1,1,24.654,0z"/>
   </g>
   <g id="lot31" class="lot">
    <path d="m1055.7,1120.1-1.6658,13.659,61.968,137.59,65.965-30.318-61.301-137.26-11.66-6.33z"/>
    <path d="m1102.1,1255.7,7.9958,16.658s-57.806,18.39-79.625,23.322c-20.493,4.6318-55.304,10.994-55.304,10.994l-5.3305-27.319s32.246-5.958,52.638-10.661c21.588-4.9789,74.294-24.321,74.294-24.321z"/>
    <path class="center" transform="translate(25.319915,9.9947034)" fill="#e9afaf" d="m1104.1,1152.1a13.993,13.993,0,1,1,-27.985,0,13.993,13.993,0,1,1,27.985,0z"/>
   </g>
   <g id="lot32" class="lot">
    <path d="m1724.5,3155.7,133.7-38.784,36.876,112.41-132.93,42.644z"/>
    <path d="m1681.5,3166.7,43.31,133.26-37.647,13.659-89.62-51.973-20.323-64.299z"/>
    <path class="center" transform="translate(-4,-6)" fill="#e9afaf" d="m1820.5,3184.4a12.486,12.486,0,1,1,-24.971,0,12.486,12.486,0,1,1,24.971,0z"/>
   </g>
   <path id="lot35" d="m2428.6,3479.5,28.269-12.25,26.62,61.486-32.274,12.014z" class="lot"/>
   <path id="lot36" d="m347.83,2220.8,45.4,150.25-25.757,7.4103-43.744-151.39z" class="lot"/>
   <g id="lot46" class="lot">
    <path d="m2400.3,2258.8s25.396,48.418,32.56,74.747c13.962,51.314,24.803,159.06,24.803,159.06l23.194-1.9753s-9.3318-120.63-27.384-177.04c-9.9424-31.067-46.341-86.363-46.341-86.363z"/>
    <path d="m2474.7,2574,25.501-4.0637,26.096,252.17-26.621-0.8245z"/>
    <path d="m2405.7,2843.8,31.212-6.5961s28.19,131.29,27.936,138.5c-2.5606,72.916-21.888,74.852-21.888,74.852l-24.99-12.21s16.013-22.131,14.361-57.932c-1.6522-35.801-26.63-136.61-26.63-136.61z"/>
    <path class="center" transform="translate(3.9978814,13.326271)" fill="#e9afaf" d="m2446.7,2291.5a10.661,10.661,0,1,1,-21.322,0,10.661,10.661,0,1,1,21.322,0z"/>
   </g>
   <g id="lot50" class="lot">
    <path d="m1191,3216.9,0.4712,18.253,29.748-0.759-0.4997-17.824z"/>
    <path d="m1254,3355.2,32.156-0.8245,0.7067,26.149-31.685,0z"/>
    <path d="m1307.2,3373,38.02-2.4499,0.4711,30.743-27.741,2.7829-11.34-24.126z"/>
    <path d="m1441.7,3342.7,37.575-0.3533,0.2356,41.224-36.762-0.3045z"/>
    <path d="m1183.3,3572.5,15.379-0.5485,2.4987,60.968-16.045,0.8816z"/>
    <path d="m1192,3839.1,13.826-2.6653-1.918-60.499,14.751-2.8318-0.4997-20.656-26.745,0.4998z"/>
    <path d="m1303.8,3797.2,20.858-1.5505,1.5884,16.795-20.375,2.9691z"/>
    <path d="m1376.8,3728.2,0.1665,30.984,61.257-0.5973-0.7638-32.434zm79.263-26.824,62.542-1.5801-3.1363-97.225-31.725-0.029-0.138-17.804,17.9-0.8376-2.1369-42.469-52.41,1.861,7.3197,81.266,37.128,1.304,2.1655,41.559-38.09,3.2625z"/>
    <path d="m1291.1,3175.3-1.4992-25.986,23.154,0.4997-0.3332,10.661s24.654,0.9994,41.811,14.826c17.158,13.826,17.657,21.989,17.657,21.989l21.488,0.6662-0.4997,33.482-30.817-0.3332-0.1666-23.154s0.6208-11.232-19.24-24.737c-12.493-8.4954-30.284-7.8596-33.732-7.9124-6.549-0.097-11.278-0.093-17.822-0.0006z"/>
    <path stroke-linejoin="round" d="m1366.3,3180.4a7.5385,7.5385,0,1,1,-15.077,0,7.5385,7.5385,0,1,1,15.077,0z" class="center" stroke="#000" stroke-dasharray="none" stroke-miterlimit="4" stroke-width="1" fill="#e9afaf"/>
   </g>
   <g id="lot47" class="lot">
    <path d="m2157.2,1105.1,48.974-34.981-9.3284-17.99s-7.8825-109.73,1.3326-140.26c10.661-35.315,43.977-53.971,74.96-56.97,26.862-2.5996,74.314,7.2316,93.95,20.323,21.988,14.659,22.988,26.319,22.988,26.319l-23.987,15.992,15.658,18.324h25.986s6.9962,36.98,6.9962,44.976c0,7.9958,1.3327,27.319,1.3327,27.319l41.645-2.3321s-14.992-38.313-16.325-51.639c-1.3326-13.326-6.9173-35.472-15.658-54.971-8.6621-19.323-29.716-39.367-32.649-41.145-1.4679-0.88948-21.773-17.561-53.971-24.82-31.632-7.1314-57.303-3.8564-80.624-0.99947-49.06,9.1511-93.548,57.706-94.283,91.618-0.6663,32.649-1.3326,122.6-1.3326,122.6s2.6653,27.319-0.9994,36.98c-3.6648,9.6616-4.6642,21.655-4.6642,21.655z"/>
    <path class="center" transform="translate(-30,-10)" fill="#e9afaf" d="m2318.1,847.88a12.993,12.993,0,1,1,-25.986,0,12.993,12.993,0,1,1,25.986,0z"/>
   </g>
   <path d="m1409.9,3728a13.993,13.993,0,1,1,-27.985,0,13.993,13.993,0,1,1,27.985,0z" fill="#e9afaf" class="center"/>
  </g>
  <g id="redlayer" stroke-linejoin="miter" class="layer" fill="#F00">
   <g id="lot30" class="lot">
    <path d="m1001.6,2231.1,5.5445,22.126,30.315-7.4383-5.6012-21.769z"/>
    <path d="m1321.3,2095.2c-23.637,43.807-67.792,57.873-108.07,73.445l-15.416,0.6969-3.6577-15.555s18.555-7.2739,26.925-47.438c20.004-28.991,94.638-60.593,100.22-11.148z"/>
    <path class="center" transform="translate(-2,0)" fill="#e9afaf" d="m1274.5,2096.2a9.8943,9.8943,0,1,1,-19.788,0,9.8943,9.8943,0,1,1,19.788,0z"/>
   </g>
   <path id="lot39" d="m1040.6,2293.1,20.26-6.1249,27.798,89.284-21.438,7.3029z" class="lot"/>
   <path id="lot42" d="m1241.4,2960.7s7.2582,95.82,44.206,109.44c31.012,11.431,100.4-19.943,100.4-19.943l-22.012-64.346s-6.4261-10.183-12.996-11.668c-5.897-1.3326-16.92,3.234-16.92,3.234l-16.382-39.703z" class="lot"/>
   <g id="lot52" class="lot">
    <path d="m2401.1,2711.4c4.0988,17.987-24.754,45.411-24.754,45.411l-10.837-58.188,10.958-8.7399s22.176,10.735,24.633,21.517z"/>
    <path d="m2390.6,2786.2,44.292-1.7062,2.4721,46.899-44.154,0.9423z" class="lot"/>
    <path class="center" fill="#e9afaf" d="m2398.3,2717.9a15.077,15.077,0,1,1,-30.154,0,15.077,15.077,0,1,1,30.154,0z"/>
   </g>
   <g id="lot43" class="lot">
    <path d="m1846.2,1092,12.382,27.211-107.1,42.839,47.249,114.03-59.849,24.569-55.996-140.72z"/>
    <path d="m1849.5,1384.3,66.955,156.53-42.407,17.904-68.493-155.16z"/>
    <path class="center" transform="translate(-23.319915,-46.641949)" fill="#e9afaf" d="m1775.1,1232a13.326,13.326,0,1,1,-26.652,0,13.326,13.326,0,1,1,26.652,0z"/>
   </g>
   <path id="lot45" d="m924.05,1355.2,117.55-25.324,27.798,128.04-19.553,6.5963,8.5987,35.219-14.724,3.887,37.457,117.55-66.197,25.914z" class="lot"/>
   <path id="lot54" d="m1293.3,3432.2,14.37,0,8.5986,134.99-15.312-0.2356z" class="lot"/>
   <g id="lot63" class="lot">
    <path d="m1998.3,2109.1,22.144-7.7741-12.486-37.457,25.914-8.0096,14.135,37.457,27.327-10.365-17.904-44.053-76.092,20.966z"/>
    <path d="m2025.7,2192.5,22.615-7.5385,4.0048,16.255,28.269,35.101,1.1779,22.38-6.3606,9.6587-0.2356,20.024,6.8318,13.428,0.4711,22.616,18.14,18.611,47.351-0.4712,0,19.788-72.794-1.4134-10.836-7.5385-13.899-46.644,16.49-5.4182-12.721-50.885-10.129,2.5913z"/>
    <path d="m2186.4,2458.3,50.885-1.649,12.25,60.072-42.168,12.014z"/>
    <path d="m1903.9,1649.3,59.365-26.149,47.116,112.37-61.721,25.207z"/>
    <path d="m2008.8,1240.1,20.966-5.4183s118.75,93.777,124.47,185.51c7.9985,128.33-21.129,132.34-22.949,261.16-0.7617,53.92,17.866,162.33,17.866,162.33l-14.606,10.366s-23.4-116.03-22.121-167.73c3.1877-128.88,34.746-135.92,21.911-265.36-6.8367-68.948-125.53-180.86-125.53-180.86z"/>
    <path class="center" transform="translate(-3.8846194,12.250026)" fill="#e9afaf" d="m1975.1,1652.9a15.077,15.077,0,1,1,-30.154,0,15.077,15.077,0,1,1,30.154,0z"/>
   </g>
   <g id="lot64" class="lot">
    <path d="m1377.5,2112.7,12.721,48.764-49.471,12.721-12.486-36.514z"/>
    <path d="m1148.8,2276.6,40.048-11.308,10.722,35.633-40.048,12.25z"/>
    <path d="m1177.2,2434.6,57.71-17.587,3.9644,12.56,22.851-7.3029,13.704,37.148-79.618,30.544z"/>
    <path d="m1354.1,2298.3-53.805,16.824,52.139,178.07,19.49,54.971,47.975,46.475,44.476,119.27,27.652,92.784,21.322-4.4976-24.654-79.624-22.155-35.315-33.815-104.11-24.82-24.82,9.4949-28.652-6.8297-12.66-29.984,13.659-42.977-146.92,31.65-15.825z"/>
    <path class="center" transform="translate(10.661017,2.6652542)" fill="#e9afaf" d="m1333.4,2325.2a10.837,10.837,0,1,1,-21.673,0,10.837,10.837,0,1,1,21.673,0z"/>
   </g>
   <g id="lot65" class="lot">
    <path d="m1097.9,2000.6,21.655-9.4949,23.821,29.651-33.149,4.4976z"/>
    <path d="m1431,1496.5-151.53,68.774-18.606-42.753,20.048-16.231,26.701-11.934,18.766,40.91,100.12-45.466z"/>
    <path d="m1270.4,1671.5,43.767-16.629,8.4808,19.082-44.76,18.14z"/>
    <path d="m1291.6,1731.7,73.736-33.452,23.322-1.649,19.082,44.053-94.231,41.697z"/>
    <path d="m1322.6,1794.1,146.76-67.797,22.321,51.306-47.475,26.319-31.816-16.824-77.459,35.481z"/>
    <path d="m1233.8,1874.9,41.697,19.082-7.774,36.75-62.546-6.9495-6.3606-24.736,28.269-10.248z"/>
    <path d="m1153.7,1628.9,61.834,22.222-63.8,147.42-7.6626,25.486,25.32,153.25-14.326,5.4971-31.483-157.25,10.368-45.134-49.772-26.994-24.563,54.138-24.154-13.327,11.794-30.884,0.9221-83.74,18.068-18.872,39.313-13.16-7.8292,34.982,3.3316,60.301,16.431,10.717-9.2674-35.87z"/>
    <path class="center" transform="translate(-11.327331,11.327331)" fill="#e9afaf" d="m1318.6,1503.9a12.66,12.66,0,1,1,-25.32,0,12.66,12.66,0,1,1,25.32,0z"/>
   </g>
   <g id="lot66" class="lot">
    <path d="m1654.3,778.06,85.515-38.87-15.077-27.563-64.077,26.385-8.0096,14.135z"/>
    <path d="m1730.9,881.24,38.87-15.901,30.036,25.207,0.8245,21.791s-4.6041-19.69-24.026-15.382c-17.223,3.8208-20.439,23.921-20.439,23.921z"/>
    <path class="center" transform="translate(-53.978814,-11.326271)" fill="#e9afaf" d="m1767.1,740.94a15.325,15.325,0,1,1,-30.65,0,15.325,15.325,0,1,1,30.65,0z"/>
   </g>
   <g id="lot67" class="lot">
    <path d="m744.28,2305.4,48.95,146.5s-6.4587,18.669-19.68,22.809c-12.899,4.0394-28.379,0.077-28.379,0.077l-45.642-152.59s8.467-14.115,17.879-17.832c8.7547-2.7823,18.162-1.246,26.868,1.036z"/>
    <path d="m397.05,2688.6,33.285-9.7276,40.338,122.28-24.658,9.0126,52.241,170.84-13.592,4.5593z"/>
    <path class="center" transform="translate(-6.5961677,-0.94230967)" fill="#e9afaf" d="m766.1,2369.5a14.606,14.606,0,1,1,-29.212,0,14.606,14.606,0,1,1,29.212,0z"/>
   </g>
   <path id="lot68" d="m1127,1097.8,5.414-17.324,27.402-11.327,17.407,8.0791,59.718,136.17-51.472,25.153z" class="lot"/>
   <path id="lot71" d="m1611.7,2922.3,37.156,141.33-119,39.451c-12.867-48.045-17.297-56.46-29.631-54.517-12.467,1.9635-15.779,14.992-18.01,57.849l-42.31-1.9989,0.1666-31.483s0.4998-4.8307,9.8281-10.494c9.3284-5.6636,22.155-1.4993,22.155-1.4993,11.826-23.38,38.66-31.346,51.277-16.353l18.518-100.42z" class="lot"/>
   <g id="lot62" class="lot">
    <path d="m2052.9,2483.7,116.82-32.208,44.1,141.15-75.293,26.986s-44.976-46.309-58.302-69.63-27.319-66.298-27.319-66.298z"/>
    <path stroke-width="1px" stroke="#000" stroke-linecap="butt" d="m1827.5,2492.9,91.307-61.962,18.077,57.021-99.06,33.625z"/>
    <path stroke-width="1px" stroke="#000" stroke-linecap="butt" d="m2235.2,2207.7,80.852-2.5458,10.977,92.864-88.443,10.042z"/>
    <path class="center" transform="translate(2,0)" fill="#e9afaf" d="m2143.8,2509.4a10.366,10.366,0,1,1,-20.731,0,10.366,10.366,0,1,1,20.731,0z"/>
   </g>
   <g id="lot41" class="lot">
    <path d="m863.33,1808.6,20.731,67.846,72.605-25.799,4.2404,11.779,15.548-4.2404,54.183,156.89,45.231-14.135-21.202-67.846-39.577-58.894-39.577-127.21-53.24,40.048z"/>
    <path class="center" transform="translate(-5.3305085,-1.3326271)" fill="#e9afaf" d="m973.48,1796.7a13.66,13.66,0,1,1,-27.319,0,13.66,13.66,0,1,1,27.319,0z"/>
   </g>
  </g>
 </g>
 <g id="garagelayer" class="layer">
  <path stroke-linejoin="miter" d="m1380.7,2015.5,93.803-30.473,0.7353-7.9407,9.7706-2.8387,6.232,6.2891,50.485-15.272,0.8733-4.1428,13.467-4.4171,15.26,52.351,60.489-18.361,16.183,51.772-96.814,28.31-4.476-11.661-32.569,10.189,0.1767,7.3618-12.25,3.7693-4.1227-6.9496-94.01,27.436-7.1708,8.0179-11.224-7.2078,4.3926-11.403-18.389-62.873-6.6652-5.2516,5.5564-9.4921z" stroke="#000" stroke-width="1px" class="lot" fill="#d87701"/>
 </g>
 <g id="meteredlayer" stroke-linejoin="miter" stroke="#000" stroke-linecap="butt" stroke-width="1px" class="layer" fill="#F0C">
  <path d="m1102.1,1255.7,7.9958,16.658s-57.806,18.39-79.625,23.322c-20.493,4.6318-55.304,10.994-55.304,10.994l-5.3305-27.319s32.246-5.958,52.638-10.661c21.588-4.9789,74.294-24.321,74.294-24.321z"/>
  <path d="m1097.9,2000.6,21.655-9.4949,23.821,29.651-33.149,4.4976z"/>
  <path d="m2099.4,2541.8,52.762,69.854-13.659,7.9961s-44.976-46.309-58.302-69.63z"/>
  <path d="m1148.8,2276.6,40.048-11.308,10.722,35.633-40.048,12.25z"/>
  <path d="m1482.2,3106.4-42.31-1.9989,0.1666-31.483s0.4998-4.8307,9.8281-10.494c9.3284-5.6636,22.155-1.4993,22.155-1.4993,8.805,6.442,11.956,25.37,10.16,45.475z"/>
  <path d="m1672.5,775.12,55.007-25.192,3.6361,9.6898-54.536,26.025z"/>
  <path d="m1611.7,991.43,65.444-30.812-3.034-6.3014,64.012-26.25,5.0122,8.0145,1.9844,11.142-29.151,8.3289-101.11,43.644z"/>
  <path d="m1691.5,1182,18.183-7.8406,52.972,125.93-19.265,9.0339z"/>
  <path d="m1719.4,1626.6,66.798-27.819,11.661,27.652-67.131,28.485z"/>
  <path d="m1019.3,1334.4,21.909-4.947,28.741,128.62-20.024,7.0674z"/>
  <path d="m1123.4,1825.3,20.655-2.6653,25.653,154.25-14.992,6.33z"/>
  <path d="m867.05,2187.5,61.133-19.435,7.4207,24.5-60.661,21.438z"/>
  <path d="m765.44,2322.1,21.818-7.3029,41.405,127.62-22.468,7.8376z"/>
  <path d="m2238.6,2308.1,88.442-10.045,1.4445,13.343-89.484,10.361z"/>
  <path d="m2333.3,2270.2,15.325-0.8329s16.461,95.68,18.343,144.05c1.3374,34.38-5.0448,103.09-5.0448,103.09l-14.906,0.069s4.6906-67.919,3.2478-101.86c-2.0602-48.46-16.964-144.52-16.964-144.52z"/>
  <path d="m2447.9,2350.5,14.237-2.5997s9.2687,50.588,12.557,76.08c2.8593,22.164,6.2274,66.752,6.2274,66.752l-13.284,0.9579s-3.6999-44.046-6.7038-65.931c-3.4621-25.223-13.034-75.259-13.034-75.259z"/>
  <path d="m1768.7,2766,16.991-4.6642,70.296,250.7-18.324,5.6637z"/>
  <path d="m1851,2744.9,18.324-5.6637,75.293,242.87-16.658,6.6631z"/>
  <path d="m1867.4,3113.7,115.61-37.647,39.313,139.26-90.952,29.651-5.6636-7.9958-16.658,4.3311z"/>
  <path d="m1568.9,2959.3,26.814-8.7238,5.0427,16.868-26.834,9.1949z"/>
  <path d="m1254.4,2956.8,63.154-19.066,5.1365,12.227-64.215,20.655z"/>
  <path d="m1098.4,3430.8,150.25-8.5784,1.3769,17.177-150.92,8.6621z"/>
  <path d="m1108.2,3564.8,75.96-6.3301,0.4998,13.16-75.46,5.9969z"/>
  <path d="m1191.4,3558.5,82.79-3.3316,1.3326,12.66-83.289,3.9979z"/>
  <path d="m479.16,3353.6-0.47115,15.548,74.442,0.9423-0.70673-16.255z"/>
  <path d="m481.52,3375.5s92.07,2.5621,138.05,0.7068c24.728-0.9978,46.644-7.3029,73.971-6.3606,43.052-1.849,80.727,19.227,110.02,47.116,10.813,12.664,18.139,31.567,18.139,31.567l-11.779,4.7116s-10.365-26.385-28.976-38.87c-18.611-12.486-43.346-29.212-62.664-32.038-19.317-2.8269-46.644,1.4134-70.909,3.5336-24.264,2.1202-22.114,2.306-33.216,2.5914-44.524,1.1447-133.57-3.5337-133.57-3.5337z"/>
  <path class="lot" d="m606.68,3353.6,51.306-5.9969,1.166,8.4955,6.1634-4.1644,0.33316-11.66-10.494,0.4997,0.33316-18.99s46.541-7.1075,69.63-4.3311c25.806,3.1033,48.807,3.6648,74.46,23.154,25.653,19.49,49.807,43.977,57.803,61.301,7.9958,17.324,10.328,32.982,6.1634,37.147-4.1645,4.1644-11.161-1.8324-11.827-1.4992l-4.6642-0.3332-9.3284,7.3295-44.643-47.808s-40.479-26.486-60.135-30.817c-19.656-4.3311-40.145-5.3306-71.962-1.8324-31.816,3.4981-50.806,4.6642-50.806,4.6642z"/>
  <path d="m1089.8,3844.2-0.2355,12.486s122.89-0.7742,174.19-9.4363c51.306-8.662,44.231-5.2832,85.546-19.942,41.311-14.659,229.21-82.623,229.21-82.623l-5.9968-10.661-226.55,82.956c-83.931,27.821-163.04,23.991-256.17,27.22z"/>
 </g>
 <g id="pedestrianlayer" stroke-linejoin="miter" stroke="#000" stroke-linecap="butt" stroke-width="1px" class="layer" fill="#ff8080">
  <path d="m1683.9,1388.3c26.206,3.7113,107.89,208.27,107.89,208.27l-116.4,48.022-23.564-56.165-12.546,5.1018-28.652-74.513,20.656-8.6621-16.967-42.839-45.39,20.46s-14.161-30.145,2.3419-49.374c6.2236-7.2518,29.792-16.738,54.098-27.722s45.582-24.408,58.528-22.575z"/>
  <path d="m1495.4,1893,32.604-4.0787,199.3-155.01,8.4808-32.981,91.404-32.038,44.288,137.58-97.058,27.327-43.346,31.096-110.25,34.865-77.952,61.356-1.0648,4.0289-46.457,14.274s-20.967-19.954-19.547-48.872c1.4877-30.286,19.599-37.544,19.599-37.544z"/>
  <path d="m1552,2394.8,17.466,54.816,33.873,51.292,22.38,60.543,4.0048,61.486,86.676,269.74-54.701,19.132-87.335-269.01,8.7331-3.1601-11.802-36.969-53.93,17.18-56.548-198.72z"/>
 </g>
 <g id="motorcyclelayer" class="layer">
  <use xlink:href="#iconmotorcycle" transform="translate(1903.5236,682.80754)" height="5032" width="4030" y="0" x="0"/>
  <use xlink:href="#iconmotorcycle" transform="translate(1742.0168,709.84944)" height="5032" width="4030" y="0" x="0"/>
  <use xlink:href="#iconmotorcycle" transform="translate(1821.0555,838.70545)" height="5032" width="4030" y="0" x="0"/>
  <use xlink:href="#iconmotorcycle" transform="translate(1650.6128,901.84025)" height="5032" width="4030" y="0" x="0"/>
  <use xlink:href="#iconmotorcycle" transform="translate(2070.4117,1070.5137)" height="5032" width="4030" y="0" x="0"/>
  <use xlink:href="#iconmotorcycle" transform="translate(2166.6524,986.40775)" height="5032" width="4030" y="0" x="0"/>
  <use xlink:href="#iconmotorcycle" transform="translate(2172.537,862.73435)" height="5032" width="4030" y="0" x="0"/>
  <use xlink:href="#iconmotorcycle" transform="translate(2086.107,1181.7803)" height="5032" width="4030" y="0" x="0"/>
  <use xlink:href="#iconmotorcycle" transform="translate(1069.4275,1128.101)" height="5032" width="4030" y="0" x="0"/>
  <use xlink:href="#iconmotorcycle" transform="translate(1034.3933,1277.0295)" height="5032" width="4030" y="0" x="0"/>
  <use xlink:href="#iconmotorcycle" transform="translate(894.06323,1363.2163)" height="5032" width="4030" y="0" x="0"/>
  <use xlink:href="#iconmotorcycle" transform="translate(916.90943,1492.4281)" height="5032" width="4030" y="0" x="0"/>
  <use xlink:href="#iconmotorcycle" transform="translate(1272.2755,1395.2548)" height="5032" width="4030" y="0" x="0"/>
  <use xlink:href="#iconmotorcycle" transform="translate(1569.8146,1436.601)" height="5032" width="4030" y="0" x="0"/>
  <use xlink:href="#iconmotorcycle" transform="translate(1179.1022,1594.909)" height="5032" width="4030" y="0" x="0"/>
  <use xlink:href="#iconmotorcycle" transform="translate(807.55529,1840.5471)" height="5032" width="4030" y="0" x="0"/>
  <use xlink:href="#iconmotorcycle" transform="translate(770.91849,1989.4155)" height="5032" width="4030" y="0" x="0"/>
  <use xlink:href="#iconmotorcycle" transform="translate(1397.6027,2084.6794)" height="5032" width="4030" y="0" x="0"/>
  <use xlink:href="#iconmotorcycle" transform="translate(1928.8592,1703.5048)" height="5032" width="4030" y="0" x="0"/>
  <use xlink:href="#iconmotorcycle" transform="translate(2708.4439,1773.4667)" height="5032" width="4030" y="0" x="0"/>
  <use xlink:href="#iconmotorcycle" transform="translate(2659.1411,1957.3703)" height="5032" width="4030" y="0" x="0"/>
  <use xlink:href="#iconmotorcycle" transform="translate(2693.2835,2495.9782)" height="5032" width="4030" y="0" x="0"/>
  <use xlink:href="#iconmotorcycle" transform="translate(2916.4905,2545.2283)" height="5032" width="4030" y="0" x="0"/>
  <use xlink:href="#iconmotorcycle" transform="translate(2909.6539,2730.1614)" height="5032" width="4030" y="0" x="0"/>
  <use xlink:href="#iconmotorcycle" transform="translate(2665.3651,2696.9402)" height="5032" width="4030" y="0" x="0"/>
  <use xlink:href="#iconmotorcycle" transform="translate(2065.9178,2479.6921)" height="5032" width="4030" y="0" x="0"/>
  <use xlink:href="#iconmotorcycle" transform="translate(1938.1865,2687.651)" height="5032" width="4030" y="0" x="0"/>
  <use xlink:href="#iconmotorcycle" transform="translate(1297.1961,2309.8491)" height="5032" width="4030" y="0" x="0"/>
  <use xlink:href="#iconmotorcycle" transform="translate(1380.4832,2495.0822)" height="5032" width="4030" y="0" x="0"/>
  <use xlink:href="#iconmotorcycle" transform="translate(1312.5149,2714.9709)" height="5032" width="4030" y="0" x="0"/>
  <use xlink:href="#iconmotorcycle" transform="translate(1489.881,2789.8121)" height="5032" width="4030" y="0" x="0"/>
  <use xlink:href="#iconmotorcycle" transform="translate(1409.6123,2979.9889)" height="5032" width="4030" y="0" x="0"/>
  <use xlink:href="#iconmotorcycle" transform="translate(1329.8814,2969.4985)" height="5032" width="4030" y="0" x="0"/>
  <use xlink:href="#iconmotorcycle" transform="translate(1471.3433,3087.643)" height="5032" width="4030" y="0" x="0"/>
  <use xlink:href="#iconmotorcycle" transform="translate(1288.6506,3146.4219)" height="5032" width="4030" y="0" x="0"/>
  <use xlink:href="#iconmotorcycle" transform="translate(1425.2855,3275.0472)" height="5032" width="4030" y="0" x="0"/>
  <use xlink:href="#iconmotorcycle" transform="translate(2081.1329,3157.7297)" height="5032" width="4030" y="0" x="0"/>
  <use xlink:href="#iconmotorcycle" transform="translate(1331.0545,3589.3075)" height="5032" width="4030" y="0" x="0"/>
  <use xlink:href="#iconmotorcycle" transform="translate(1247.4197,3776.8271)" height="5032" width="4030" y="0" x="0"/>
  <use xlink:href="#iconmotorcycle" transform="translate(926.80366,3698.6154)" height="5032" width="4030" y="0" x="0"/>
  <use xlink:href="#iconmotorcycle" transform="translate(875.09203,3911.1062)" height="5032" width="4030" y="0" x="0"/>
 </g>
 <g id="handicappedlayer" class="layer">
  <use xlink:href="#iconhandicapped" transform="translate(-15.660461,29.027374)" height="5032" width="4030" y="648.01001" x="1667.3"/>
  <use xlink:href="#iconhandicapped" transform="translate(-13.696381,93.188574)" height="5032" width="4030" y="648.01001" x="1667.3"/>
  <use xlink:href="#iconhandicapped" transform="translate(101.97643,101.51687)" height="5032" width="4030" y="648.01001" x="1667.3"/>
  <use xlink:href="#iconhandicapped" transform="translate(-2.6439908,310.75798)" height="5032" width="4030" y="648.01001" x="1667.3"/>
  <use xlink:href="#iconhandicapped" transform="translate(189.25645,463.34268)" height="5032" width="4030" y="648.01001" x="1667.3"/>
  <use xlink:href="#iconhandicapped" transform="translate(526.41119,412.70388)" height="5032" width="4030" y="648.01001" x="1667.3"/>
  <use xlink:href="#iconhandicapped" transform="translate(676.32959,173.49738)" height="5032" width="4030" y="648.01001" x="1667.3"/>
  <use xlink:href="#iconhandicapped" transform="translate(789.60499,335.40938)" height="5032" width="4030" y="648.01001" x="1667.3"/>
  <use xlink:href="#iconhandicapped" transform="translate(110.29617,616.92912)" height="5032" width="4030" y="648.01001" x="1667.3"/>
  <use xlink:href="#iconhandicapped" transform="translate(205.24691,859.79812)" height="5032" width="4030" y="648.01001" x="1667.3"/>
  <use xlink:href="#iconhandicapped" transform="translate(63.25516,969.42682)" height="5032" width="4030" y="648.01001" x="1667.3"/>
  <use xlink:href="#iconhandicapped" transform="translate(-117.90986,945.08942)" height="5032" width="4030" y="648.01001" x="1667.3"/>
  <use xlink:href="#iconhandicapped" transform="translate(447.11549,923.09902)" height="5032" width="4030" y="648.01001" x="1667.3"/>
  <use xlink:href="#iconhandicapped" transform="translate(-239.42491,872.22162)" height="5032" width="4030" y="648.01001" x="1667.3"/>
  <use xlink:href="#iconhandicapped" transform="translate(-364.15593,904.14472)" height="5032" width="4030" y="648.01001" x="1667.3"/>
  <use xlink:href="#iconhandicapped" transform="translate(-250.02107,1118.1644)" height="5032" width="4030" y="648.01001" x="1667.3"/>
  <use xlink:href="#iconhandicapped" transform="translate(1672.0598,706.25992)" height="5032" width="4030" y="648.01001" x="1667.3"/>
  <use xlink:href="#iconhandicapped" transform="translate(989.92252,1180.6966)" height="5032" width="4030" y="648.01001" x="1667.3"/>
  <use xlink:href="#iconhandicapped" transform="translate(1064.5845,1386.7597)" height="5032" width="4030" y="648.01001" x="1667.3"/>
  <use xlink:href="#iconhandicapped" transform="translate(1050.0203,1574.9538)" height="5032" width="4030" y="648.01001" x="1667.3"/>
  <use xlink:href="#iconhandicapped" transform="translate(1150.7341,1553.3014)" height="5032" width="4030" y="648.01001" x="1667.3"/>
  <use xlink:href="#iconhandicapped" transform="translate(797.48119,1686.3771)" height="5032" width="4030" y="648.01001" x="1667.3"/>
  <use xlink:href="#iconhandicapped" transform="translate(966.13401,1759.838)" height="5032" width="4030" y="648.01001" x="1667.3"/>
  <use xlink:href="#iconhandicapped" transform="translate(997.59702,1845.2813)" height="5032" width="4030" y="648.01001" x="1667.3"/>
  <use xlink:href="#iconhandicapped" transform="translate(790.05809,1841.8582)" height="5032" width="4030" y="648.01001" x="1667.3"/>
  <use xlink:href="#iconhandicapped" transform="translate(1191.482,1895.916)" height="5032" width="4030" y="648.01001" x="1667.3"/>
  <use xlink:href="#iconhandicapped" transform="translate(844.48129,2012.3009)" height="5032" width="4030" y="648.01001" x="1667.3"/>
  <use xlink:href="#iconhandicapped" transform="translate(728.80799,2144.3396)" height="5032" width="4030" y="648.01001" x="1667.3"/>
  <use xlink:href="#iconhandicapped" transform="translate(559.42299,1919.1276)" height="5032" width="4030" y="648.01001" x="1667.3"/>
  <use xlink:href="#iconhandicapped" transform="translate(357.83479,1274.9136)" height="5032" width="4030" y="648.01001" x="1667.3"/>
  <use xlink:href="#iconhandicapped" transform="translate(328.51067,1416.798)" height="5032" width="4030" y="648.01001" x="1667.3"/>
  <use xlink:href="#iconhandicapped" transform="translate(386.48099,1550.7653)" height="5032" width="4030" y="648.01001" x="1667.3"/>
  <use xlink:href="#iconhandicapped" transform="translate(-89.435781,1382.7018)" height="5032" width="4030" y="648.01001" x="1667.3"/>
  <use xlink:href="#iconhandicapped" transform="translate(-145.14956,1454.9634)" height="5032" width="4030" y="648.01001" x="1667.3"/>
  <use xlink:href="#iconhandicapped" transform="translate(-112.58465,1573.4178)" height="5032" width="4030" y="648.01001" x="1667.3"/>
  <use xlink:href="#iconhandicapped" transform="translate(-143.23084,1732.6784)" height="5032" width="4030" y="648.01001" x="1667.3"/>
  <use xlink:href="#iconhandicapped" transform="translate(252.36238,1827.581)" height="5032" width="4030" y="648.01001" x="1667.3"/>
  <use xlink:href="#iconhandicapped" transform="translate(410.56409,1860.0523)" height="5032" width="4030" y="648.01001" x="1667.3"/>
  <use xlink:href="#iconhandicapped" transform="translate(436.43599,1823.2505)" height="5032" width="4030" y="648.01001" x="1667.3"/>
  <use xlink:href="#iconhandicapped" transform="translate(-537.5409,1373.6457)" height="5032" width="4030" y="648.01001" x="1667.3"/>
  <use xlink:href="#iconhandicapped" transform="translate(-425.63681,1635.4924)" height="5032" width="4030" y="648.01001" x="1667.3"/>
  <use xlink:href="#iconhandicapped" transform="translate(-261.44417,1777.8965)" height="5032" width="4030" y="648.01001" x="1667.3"/>
  <use xlink:href="#iconhandicapped" transform="translate(-758.04137,1536.6652)" height="5032" width="4030" y="648.01001" x="1667.3"/>
  <use xlink:href="#iconhandicapped" transform="translate(-935.54187,1669.0694)" height="5032" width="4030" y="648.01001" x="1667.3"/>
  <use xlink:href="#iconhandicapped" transform="translate(-421.40605,2097.2241)" height="5032" width="4030" y="648.01001" x="1667.3"/>
  <use xlink:href="#iconhandicapped" transform="translate(-194.77092,2074.4933)" height="5032" width="4030" y="648.01001" x="1667.3"/>
  <use xlink:href="#iconhandicapped" transform="translate(-83.809141,2326.3207)" height="5032" width="4030" y="648.01001" x="1667.3"/>
  <use xlink:href="#iconhandicapped" transform="translate(-221.86715,2420.0902)" height="5032" width="4030" y="648.01001" x="1667.3"/>
  <use xlink:href="#iconhandicapped" transform="translate(-309.61734,2384.9939)" height="5032" width="4030" y="648.01001" x="1667.3"/>
  <use xlink:href="#iconhandicapped" transform="translate(-62.366791,2562.9559)" height="5032" width="4030" y="648.01001" x="1667.3"/>
  <use xlink:href="#iconhandicapped" transform="translate(-239.77105,2572.0328)" height="5032" width="4030" y="648.01001" x="1667.3"/>
  <use xlink:href="#iconhandicapped" transform="translate(-353.30126,2527.9936)" height="5032" width="4030" y="648.01001" x="1667.3"/>
  <use xlink:href="#iconhandicapped" transform="translate(-428.12572,2602.8275)" height="5032" width="4030" y="648.01001" x="1667.3"/>
  <use xlink:href="#iconhandicapped" transform="translate(-256.96338,2660.1484)" height="5032" width="4030" y="648.01001" x="1667.3"/>
  <use xlink:href="#iconhandicapped" transform="translate(-184.65554,2695.2253)" height="5032" width="4030" y="648.01001" x="1667.3"/>
  <use xlink:href="#iconhandicapped" transform="translate(-385.52795,2674.7723)" height="5032" width="4030" y="648.01001" x="1667.3"/>
  <use xlink:href="#iconhandicapped" transform="translate(-382.17519,2866.6296)" height="5032" width="4030" y="648.01001" x="1667.3"/>
  <use xlink:href="#iconhandicapped" transform="translate(-211.89206,2963.4795)" height="5032" width="4030" y="648.01001" x="1667.3"/>
  <use xlink:href="#iconhandicapped" transform="translate(-329.75198,3151.4379)" height="5032" width="4030" y="648.01001" x="1667.3"/>
  <use xlink:href="#iconhandicapped" transform="translate(-449.65607,3117.1493)" height="5032" width="4030" y="648.01001" x="1667.3"/>
  <use xlink:href="#iconhandicapped" transform="translate(-642.25266,3052.4954)" height="5032" width="4030" y="648.01001" x="1667.3"/>
  <use xlink:href="#iconhandicapped" transform="translate(-638.84882,2868.6103)" height="5032" width="4030" y="648.01001" x="1667.3"/>
  <use xlink:href="#iconhandicapped" transform="translate(-907.63797,3116.6878)" height="5032" width="4030" y="648.01001" x="1667.3"/>
  <use xlink:href="#iconhandicapped" transform="translate(-1160.6949,2706.8182)" height="5032" width="4030" y="648.01001" x="1667.3"/>
  <use xlink:href="#iconhandicapped" transform="translate(-959.92647,3393.6115)" height="5032" width="4030" y="648.01001" x="1667.3"/>
  <use xlink:href="#iconhandicapped" transform="translate(-986.19577,3450.977)" height="5032" width="4030" y="648.01001" x="1667.3"/>
  <use xlink:href="#iconhandicapped" transform="translate(795.00039,2870.6296)" height="5032" width="4030" y="648.01001" x="1667.3"/>
  <use xlink:href="#iconhandicapped" transform="translate(250.43978,2466.3584)" height="5032" width="4030" y="648.01001" x="1667.3"/>
  <use xlink:href="#iconhandicapped" transform="translate(411.03579,2411.2139)" height="5032" width="4030" y="648.01001" x="1667.3"/>
  <use xlink:href="#iconhandicapped" transform="translate(-319.98274,1515.7037)" height="5032" width="4030" y="648.01001" x="1667.3"/>
 </g>
 <g id="busstoplayer" class="layer">
  <use xlink:href="#iconbus" transform="translate(544.45082,360.7734)" height="5032" width="4030" y="648.01001" x="1667.3"/>
  <use xlink:href="#iconbus" transform="translate(-8.6220055,633.9304)" height="5032" width="4030" y="648.01001" x="1667.3"/>
  <use xlink:href="#iconbus" transform="translate(-884.82434,653.9198)" height="5032" width="4030" y="648.01001" x="1667.3"/>
  <use xlink:href="#iconbus" transform="translate(-1104.7056,1147.6561)" height="5032" width="4030" y="648.01001" x="1667.3"/>
  <use xlink:href="#iconbus" transform="translate(-1293.2744,1177.6424)" height="5032" width="4030" y="648.01001" x="1667.3"/>
  <use xlink:href="#iconbus" transform="translate(-1519.8199,1090.3553)" height="5032" width="4030" y="648.01001" x="1667.3"/>
  <use xlink:href="#iconbus" transform="translate(-70.429395,951.608)" height="5032" width="4030" y="648.01001" x="1667.3"/>
  <use xlink:href="#iconbus" transform="translate(46.181435,1371.1713)" height="5032" width="4030" y="648.01001" x="1667.3"/>
  <use xlink:href="#iconbus" transform="translate(671.01782,1275.5904)" height="5032" width="4030" y="648.01001" x="1667.3"/>
  <use xlink:href="#iconbus" transform="translate(1179.4153,983.2454)" height="5032" width="4030" y="648.01001" x="1667.3"/>
  <use xlink:href="#iconbus" transform="translate(816.28408,1660.2248)" height="5032" width="4030" y="648.01001" x="1667.3"/>
  <use xlink:href="#iconbus" transform="translate(972.47188,1780.8405)" height="5032" width="4030" y="648.01001" x="1667.3"/>
  <use xlink:href="#iconbus" transform="translate(232.58352,1974.5534)" height="5032" width="4030" y="648.01001" x="1667.3"/>
  <use xlink:href="#iconbus" transform="translate(-97.991945,2064.0045)" height="5032" width="4030" y="648.01001" x="1667.3"/>
  <use xlink:href="#iconbus" transform="translate(207.66232,2349.9955)" height="5032" width="4030" y="648.01001" x="1667.3"/>
  <use xlink:href="#iconbus" transform="translate(-856.50601,1753.0041)" height="5032" width="4030" y="648.01001" x="1667.3"/>
  <use xlink:href="#iconbus" transform="translate(-718.5791,2227.1053)" height="5032" width="4030" y="648.01001" x="1667.3"/>
  <use xlink:href="#iconbus" transform="translate(-826.53679,2906.5159)" height="5032" width="4030" y="648.01001" x="1667.3"/>
  <use xlink:href="#iconbus" transform="translate(-773.39241,2978.689)" height="5032" width="4030" y="648.01001" x="1667.3"/>
  <use xlink:href="#iconbus" transform="translate(-1060.2101,3068.5452)" height="5032" width="4030" y="648.01001" x="1667.3"/>
  <use xlink:href="#iconbus" transform="translate(-1082.4699,3325.7187)" height="5032" width="4030" y="648.01001" x="1667.3"/>
  <use xlink:href="#iconbus" transform="translate(-361.15118,2506.5247)" height="5032" width="4030" y="648.01001" x="1667.3"/>
  <use xlink:href="#iconbus" transform="translate(637.04862,2795.4644)" height="5032" width="4030" y="648.01001" x="1667.3"/>
  <use xlink:href="#iconbus" transform="translate(863.57828,2700.8468)" height="5032" width="4030" y="648.01001" x="1667.3"/>
  <use xlink:href="#iconbus" transform="translate(797.63238,3000.0099)" height="5032" width="4030" y="648.01001" x="1667.3"/>
  <use xlink:href="#iconbus" transform="translate(770.29868,3361.8182)" height="5032" width="4030" y="648.01001" x="1667.3"/>
  <use xlink:href="#iconbus" transform="translate(-350.44086,2460.2991)" height="5032" width="4030" y="648.01001" x="1667.3"/>
 </g>
 <g id="rentallayer" class="layer">
  <use class="enterprise" xlink:href="#iconenterprise" transform="translate(1021.0708,1605.0675)" height="5032" width="4030" y="0" x="0"/>
  <use class="zip" xlink:href="#iconzip" transform="translate(1783.6513,1260.8095)" height="5032" width="4030" y="0" x="0"/>
  <use class="zip" xlink:href="#iconzip" transform="translate(2647.9301,2168.1843)" height="5032" width="4030" y="0" x="0"/>
  <use class="zip" xlink:href="#iconzip" transform="translate(1560.5063,3077.0361)" height="5032" width="4030" y="0" x="0"/>
  <use class="zip" xlink:href="#iconzip" transform="translate(1034.1187,3716.697)" height="5032" width="4030" y="0" x="0"/>
 </g>
 <g id="bikeracklayer" transform="translate(180.92346,320.53899)" class="layer">
  <use xlink:href="#iconbike" transform="translate(463.65118,-96.828102)" height="5032" width="4030" y="648.01001" x="1667.3"/>
  <use xlink:href="#iconbike" transform="translate(429.30878,-55.764402)" height="5032" width="4030" y="648.01001" x="1667.3"/>
  <use xlink:href="#iconbike" transform="translate(499.60478,-51.433402)" height="5032" width="4030" y="648.01001" x="1667.3"/>
  <use xlink:href="#iconbike" transform="translate(541.58578,-31.449302)" height="5032" width="4030" y="648.01001" x="1667.3"/>
  <use xlink:href="#iconbike" transform="translate(544.91408,15.197995)" height="5032" width="4030" y="648.01001" x="1667.3"/>
  <use xlink:href="#iconbike" transform="translate(398.66038,57.178895)" height="5032" width="4030" y="648.01001" x="1667.3"/>
  <use xlink:href="#iconbike" transform="translate(357.01578,38.187895)" height="5032" width="4030" y="648.01001" x="1667.3"/>
  <use xlink:href="#iconbike" transform="translate(1462.3644,397.7708)" height="5032" width="4030" y="648.01001" x="1667.3"/>
  <use xlink:href="#iconbike" transform="translate(162.68352,296.9436)" height="5032" width="4030" y="648.01001" x="1667.3"/>
  <use xlink:href="#iconbike" transform="translate(217.33749,389.7612)" height="5032" width="4030" y="648.01001" x="1667.3"/>
  <use xlink:href="#iconbike" transform="translate(74.813144,397.2996)" height="5032" width="4030" y="648.01001" x="1667.3"/>
  <use xlink:href="#iconbike" transform="translate(-624.79933,367.0116)" height="5032" width="4030" y="648.01001" x="1667.3"/>
  <use xlink:href="#iconbike" transform="translate(-618.80251,472.2891)" height="5032" width="4030" y="648.01001" x="1667.3"/>
  <use xlink:href="#iconbike" transform="translate(-587.15262,521.2631)" height="5032" width="4030" y="648.01001" x="1667.3"/>
  <use xlink:href="#iconbike" transform="translate(-492.86925,629.5391)" height="5032" width="4030" y="648.01001" x="1667.3"/>
  <use xlink:href="#iconbike" transform="translate(-376.26438,583.8966)" height="5032" width="4030" y="648.01001" x="1667.3"/>
  <use xlink:href="#iconbike" transform="translate(-356.94234,652.1916)" height="5032" width="4030" y="648.01001" x="1667.3"/>
  <use xlink:href="#iconbike" transform="translate(-340.94976,696.8378)" height="5032" width="4030" y="648.01001" x="1667.3"/>
  <use xlink:href="#iconbike" transform="translate(-396.9201,696.1705)" height="5032" width="4030" y="648.01001" x="1667.3"/>
  <use xlink:href="#iconbike" transform="translate(-63.096996,470.6233)" height="5032" width="4030" y="648.01001" x="1667.3"/>
  <use xlink:href="#iconbike" transform="translate(-14.789266,583.8966)" height="5032" width="4030" y="648.01001" x="1667.3"/>
  <use xlink:href="#iconbike" transform="translate(-193.02815,607.5508)" height="5032" width="4030" y="648.01001" x="1667.3"/>
  <use xlink:href="#iconbike" transform="translate(-166.70876,665.1869)" height="5032" width="4030" y="648.01001" x="1667.3"/>
  <use xlink:href="#iconbike" transform="translate(-34.445516,690.1736)" height="5032" width="4030" y="648.01001" x="1667.3"/>
  <use xlink:href="#iconbike" transform="translate(-169.37401,812.442)" height="5032" width="4030" y="648.01001" x="1667.3"/>
  <use xlink:href="#iconbike" transform="translate(121.22189,553.2519)" height="5032" width="4030" y="648.01001" x="1667.3"/>
  <use xlink:href="#iconbike" transform="translate(144.0729,593.5356)" height="5032" width="4030" y="648.01001" x="1667.3"/>
  <use xlink:href="#iconbike" transform="translate(277.88088,521.4489)" height="5032" width="4030" y="648.01001" x="1667.3"/>
  <use xlink:href="#iconbike" transform="translate(275.99627,567.6221)" height="5032" width="4030" y="648.01001" x="1667.3"/>
  <use xlink:href="#iconbike" transform="translate(-296.45686,847.0168)" height="5032" width="4030" y="648.01001" x="1667.3"/>
  <use xlink:href="#iconbike" transform="translate(-509.41885,895.0746)" height="5032" width="4030" y="648.01001" x="1667.3"/>
  <use xlink:href="#iconbike" transform="translate(-744.73579,842.093)" height="5032" width="4030" y="648.01001" x="1667.3"/>
  <use xlink:href="#iconbike" transform="translate(-588.8184,828.7667)" height="5032" width="4030" y="648.01001" x="1667.3"/>
  <use xlink:href="#iconbike" transform="translate(-710.08739,1109.951)" height="5032" width="4030" y="648.01001" x="1667.3"/>
  <use xlink:href="#iconbike" transform="translate(-765.39149,1139.9351)" height="5032" width="4030" y="648.01001" x="1667.3"/>
  <use xlink:href="#iconbike" transform="translate(-969.28324,1240.6235)" height="5032" width="4030" y="648.01001" x="1667.3"/>
  <use xlink:href="#iconbike" transform="translate(-484.20717,1273.8641)" height="5032" width="4030" y="648.01001" x="1667.3"/>
  <use xlink:href="#iconbike" transform="translate(-477.54403,1320.506)" height="5032" width="4030" y="648.01001" x="1667.3"/>
  <use xlink:href="#iconbike" transform="translate(-432.23472,1266.5346)" height="5032" width="4030" y="648.01001" x="1667.3"/>
  <use xlink:href="#iconbike" transform="translate(-1060.1877,1374.7044)" height="5032" width="4030" y="648.01001" x="1667.3"/>
  <use xlink:href="#iconbike" transform="translate(-197.04319,993.546)" height="5032" width="4030" y="648.01001" x="1667.3"/>
  <use xlink:href="#iconbike" transform="translate(-154.1681,1014.7479)" height="5032" width="4030" y="648.01001" x="1667.3"/>
  <use xlink:href="#iconbike" transform="translate(-87.735266,965.2767)" height="5032" width="4030" y="648.01001" x="1667.3"/>
  <use xlink:href="#iconbike" transform="translate(-21.773586,1027.469)" height="5032" width="4030" y="648.01001" x="1667.3"/>
  <use xlink:href="#iconbike" transform="translate(30.524584,959.6228)" height="5032" width="4030" y="648.01001" x="1667.3"/>
  <use xlink:href="#iconbike" transform="translate(53.611174,1088.7191)" height="5032" width="4030" y="648.01001" x="1667.3"/>
  <use xlink:href="#iconbike" transform="translate(119.10169,1021.8151)" height="5032" width="4030" y="648.01001" x="1667.3"/>
  <use xlink:href="#iconbike" transform="translate(784.84348,830.9975)" height="5032" width="4030" y="648.01001" x="1667.3"/>
  <use xlink:href="#iconbike" transform="translate(835.72818,906.8535)" height="5032" width="4030" y="648.01001" x="1667.3"/>
  <use xlink:href="#iconbike" transform="translate(764.11268,904.0265)" height="5032" width="4030" y="648.01001" x="1667.3"/>
  <use xlink:href="#iconbike" transform="translate(732.07418,970.9305)" height="5032" width="4030" y="648.01001" x="1667.3"/>
  <use xlink:href="#iconbike" transform="translate(744.32418,1024.171)" height="5032" width="4030" y="648.01001" x="1667.3"/>
  <use xlink:href="#iconbike" transform="translate(803.68968,1033.594)" height="5032" width="4030" y="648.01001" x="1667.3"/>
  <use xlink:href="#iconbike" transform="translate(-536.74583,1446.3257)" height="5032" width="4030" y="648.01001" x="1667.3"/>
  <use xlink:href="#iconbike" transform="translate(-335.56271,1354.4505)" height="5032" width="4030" y="648.01001" x="1667.3"/>
  <use xlink:href="#iconbike" transform="translate(-235.67789,1328.0658)" height="5032" width="4030" y="648.01001" x="1667.3"/>
  <use xlink:href="#iconbike" transform="translate(-253.58177,1190.9597)" height="5032" width="4030" y="648.01001" x="1667.3"/>
  <use xlink:href="#iconbike" transform="translate(-174.42776,1189.5463)" height="5032" width="4030" y="648.01001" x="1667.3"/>
  <use xlink:href="#iconbike" transform="translate(136.53442,1186.2482)" height="5032" width="4030" y="648.01001" x="1667.3"/>
  <use xlink:href="#iconbike" transform="translate(173.2845,1245.6136)" height="5032" width="4030" y="648.01001" x="1667.3"/>
  <use xlink:href="#iconbike" transform="translate(134.17865,1333.2485)" height="5032" width="4030" y="648.01001" x="1667.3"/>
  <use xlink:href="#iconbike" transform="translate(204.38072,1351.1524)" height="5032" width="4030" y="648.01001" x="1667.3"/>
  <use xlink:href="#iconbike" transform="translate(288.24629,1289.4311)" height="5032" width="4030" y="648.01001" x="1667.3"/>
  <use xlink:href="#iconbike" transform="translate(346.66948,1301.21)" height="5032" width="4030" y="648.01001" x="1667.3"/>
  <use xlink:href="#iconbike" transform="translate(344.78488,1356.8062)" height="5032" width="4030" y="648.01001" x="1667.3"/>
  <use xlink:href="#iconbike" transform="translate(496.49678,1256.9214)" height="5032" width="4030" y="648.01001" x="1667.3"/>
  <use xlink:href="#iconbike" transform="translate(614.75658,1335.1331)" height="5032" width="4030" y="648.01001" x="1667.3"/>
  <use xlink:href="#iconbike" transform="translate(551.62188,1451.9795)" height="5032" width="4030" y="648.01001" x="1667.3"/>
  <use xlink:href="#iconbike" transform="translate(648.67978,1505.6912)" height="5032" width="4030" y="648.01001" x="1667.3"/>
  <use xlink:href="#iconbike" transform="translate(772.59348,1280.9503)" height="5032" width="4030" y="648.01001" x="1667.3"/>
  <use xlink:href="#iconbike" transform="translate(814.52628,1346.4408)" height="5032" width="4030" y="648.01001" x="1667.3"/>
  <use xlink:href="#iconbike" transform="translate(836.67048,1433.6045)" height="5032" width="4030" y="648.01001" x="1667.3"/>
  <use xlink:href="#iconbike" transform="translate(921.94948,1286.8446)" height="5032" width="4030" y="648.01001" x="1667.3"/>
  <use xlink:href="#iconbike" transform="translate(924.89188,1333.71)" height="5032" width="4030" y="648.01001" x="1667.3"/>
  <use xlink:href="#iconbike" transform="translate(981.78616,1476.9507)" height="5032" width="4030" y="648.01001" x="1667.3"/>
  <use xlink:href="#iconbike" transform="translate(490.60958,1662.9912)" height="5032" width="4030" y="648.01001" x="1667.3"/>
  <use xlink:href="#iconbike" transform="translate(115.66443,1519.8481)" height="5032" width="4030" y="648.01001" x="1667.3"/>
  <use xlink:href="#iconbike" transform="translate(136.98647,1566.4901)" height="5032" width="4030" y="648.01001" x="1667.3"/>
  <use xlink:href="#iconbike" transform="translate(142.79388,1788.9245)" height="5032" width="4030" y="648.01001" x="1667.3"/>
  <use xlink:href="#iconbike" transform="translate(94.152994,1809.5844)" height="5032" width="4030" y="648.01001" x="1667.3"/>
  <use xlink:href="#iconbike" transform="translate(83.493034,1764.9414)" height="5032" width="4030" y="648.01001" x="1667.3"/>
  <use xlink:href="#iconbike" transform="translate(37.516344,1760.9393)" height="5032" width="4030" y="648.01001" x="1667.3"/>
  <use xlink:href="#iconbike" transform="translate(-53.768606,2003.4775)" height="5032" width="4030" y="648.01001" x="1667.3"/>
  <use xlink:href="#iconbike" transform="translate(-145.05357,1916.1905)" height="5032" width="4030" y="648.01001" x="1667.3"/>
  <use xlink:href="#iconbike" transform="translate(-354.75293,2065.4447)" height="5032" width="4030" y="648.01001" x="1667.3"/>
  <use xlink:href="#iconbike" transform="translate(-584.15421,2201.3727)" height="5032" width="4030" y="648.01001" x="1667.3"/>
  <use xlink:href="#iconbike" transform="translate(-668.10969,2339.9648)" height="5032" width="4030" y="648.01001" x="1667.3"/>
  <use xlink:href="#iconbike" transform="translate(-660.11399,2385.9436)" height="5032" width="4030" y="648.01001" x="1667.3"/>
  <use xlink:href="#iconbike" transform="translate(-525.51861,2272.0019)" height="5032" width="4030" y="648.01001" x="1667.3"/>
  <use xlink:href="#iconbike" transform="translate(-476.87772,2271.3356)" height="5032" width="4030" y="648.01001" x="1667.3"/>
  <use xlink:href="#iconbike" transform="translate(-510.19234,2339.2975)" height="5032" width="4030" y="648.01001" x="1667.3"/>
  <use xlink:href="#iconbike" transform="translate(-541.50802,2373.2794)" height="5032" width="4030" y="648.01001" x="1667.3"/>
  <use xlink:href="#iconbike" transform="translate(-416.1082,2388.0569)" height="5032" width="4030" y="648.01001" x="1667.3"/>
  <use xlink:href="#iconbike" transform="translate(-390.55645,2352.7412)" height="5032" width="4030" y="648.01001" x="1667.3"/>
  <use xlink:href="#iconbike" transform="translate(-330.28874,2500.5475)" height="5032" width="4030" y="648.01001" x="1667.3"/>
  <use xlink:href="#iconbike" transform="translate(-366.93493,2531.8631)" height="5032" width="4030" y="648.01001" x="1667.3"/>
  <use xlink:href="#iconbike" transform="translate(-21.119246,2425.254)" height="5032" width="4030" y="648.01001" x="1667.3"/>
  <use xlink:href="#iconbike" transform="translate(10.862744,2383.9436)" height="5032" width="4030" y="648.01001" x="1667.3"/>
  <use xlink:href="#iconbike" transform="translate(-435.56628,2592.4987)" height="5032" width="4030" y="648.01001" x="1667.3"/>
  <use xlink:href="#iconbike" transform="translate(-394.25484,2601.1609)" height="5032" width="4030" y="648.01001" x="1667.3"/>
  <use xlink:href="#iconbike" transform="translate(-350.27815,2644.4712)" height="5032" width="4030" y="648.01001" x="1667.3"/>
  <use xlink:href="#iconbike" transform="translate(-386.25908,2684.45)" height="5032" width="4030" y="648.01001" x="1667.3"/>
  <use xlink:href="#iconbike" transform="translate(-440.23048,2687.7816)" height="5032" width="4030" y="648.01001" x="1667.3"/>
  <use xlink:href="#iconbike" transform="translate(-632.7951,2584.503)" height="5032" width="4030" y="648.01001" x="1667.3"/>
  <use xlink:href="#iconbike" transform="translate(-611.47306,2630.4786)" height="5032" width="4030" y="648.01001" x="1667.3"/>
  <use xlink:href="#iconbike" transform="translate(-679.43709,2679.1195)" height="5032" width="4030" y="648.01001" x="1667.3"/>
  <use xlink:href="#iconbike" transform="translate(-715.41799,2415.9256)" height="5032" width="4030" y="648.01001" x="1667.3"/>
  <use xlink:href="#iconbike" transform="translate(-616.371,1848.692)" height="5032" width="4030" y="648.01001" x="1667.3"/>
  <use xlink:href="#iconbike" transform="translate(-373.2551,1697.9223)" height="5032" width="4030" y="648.01001" x="1667.3"/>
  <use xlink:href="#iconbike" transform="translate(-328.02424,1598.0375)" height="5032" width="4030" y="648.01001" x="1667.3"/>
  <use xlink:href="#iconbike" transform="translate(-263.00487,1647.9799)" height="5032" width="4030" y="648.01001" x="1667.3"/>
  <use xlink:href="#iconbike" transform="translate(-189.50472,1719.5955)" height="5032" width="4030" y="648.01001" x="1667.3"/>
  <use xlink:href="#iconbike" transform="translate(-174.42776,1770.4802)" height="5032" width="4030" y="648.01001" x="1667.3"/>
  <use xlink:href="#iconbike" transform="translate(-263.00487,1794.9802)" height="5032" width="4030" y="648.01001" x="1667.3"/>
 </g>
 <g id="electriclayer" class="layer">
  <use xlink:href="#iconelectric" transform="translate(498.39912,2399.4662)" height="5032" width="4030" y="648.01001" x="1667.3"/>
  <use xlink:href="#iconelectric" transform="translate(-231.37264,1426.0157)" height="5032" width="4030" y="648.01001" x="1667.3"/>
  <use xlink:href="#iconelectric" transform="translate(-728.35761,953.349)" height="5032" width="4030" y="648.01001" x="1667.3"/>
 </g>
 <g id="vendorlayer" class="layer">
  <use xlink:href="#iconvendor" transform="translate(1739.5595,1653.9285)" height="5032" width="4030" y="0" x="0"/>
  <use xlink:href="#iconvendor" transform="translate(1479.891,1777.5462)" height="5032" width="4030" y="0" x="0"/>
  <use xlink:href="#iconvendor" transform="translate(1318.6231,2129.5748)" height="5032" width="4030" y="0" x="0"/>
  <use xlink:href="#iconvendor" transform="translate(1351.604,2018.3823)" height="5032" width="4030" y="0" x="0"/>
  <use xlink:href="#iconvendor" transform="translate(1255.4883,1932.6321)" height="5032" width="4030" y="0" x="0"/>
  <use xlink:href="#iconvendor" transform="translate(985.98757,1811.0741)" height="5032" width="4030" y="0" x="0"/>
  <use xlink:href="#iconvendor" transform="translate(1076.6112,2295.1257)" height="5032" width="4030" y="0" x="0"/>
  <use xlink:href="#iconvendor" transform="translate(1353.4886,2367.9792)" height="5032" width="4030" y="0" x="0"/>
  <use xlink:href="#iconvendor" transform="translate(1852.9127,2073.0362)" height="5032" width="4030" y="0" x="0"/>
  <use xlink:href="#iconvendor" transform="translate(2484.2602,2339.2134)" height="5032" width="4030" y="0" x="0"/>
  <use xlink:href="#iconvendor" transform="translate(2231.7881,2640.212)" height="5032" width="4030" y="0" x="0"/>
  <use xlink:href="#iconvendor" transform="translate(1700.8106,2703.8872)" height="5032" width="4030" y="0" x="0"/>
  <use xlink:href="#iconvendor" transform="translate(1604.0483,2790.6859)" height="5032" width="4030" y="0" x="0"/>
  <use xlink:href="#iconvendor" transform="translate(1469.3926,2763.7493)" height="5032" width="4030" y="0" x="0"/>
  <use xlink:href="#iconvendor" transform="translate(1279.9884,2799.557)" height="5032" width="4030" y="0" x="0"/>
  <use xlink:href="#iconvendor" transform="translate(1618.2776,2922.9996)" height="5032" width="4030" y="0" x="0"/>
  <use xlink:href="#iconvendor" transform="translate(1473.5245,3245.4981)" height="5032" width="4030" y="0" x="0"/>
  <use xlink:href="#iconvendor" transform="translate(1361.9694,3334.7889)" height="5032" width="4030" y="0" x="0"/>
  <use xlink:href="#iconvendor" transform="translate(1468.7264,3595.5327)" height="5032" width="4030" y="0" x="0"/>
  <use xlink:href="#iconvendor" transform="translate(1445.8823,3737.0408)" height="5032" width="4030" y="0" x="0"/>
  <use xlink:href="#iconvendor" transform="translate(1312.6463,1888.1543)" height="5032" width="4030" y="0" x="0"/>
 </g>
 <g id="loadinglayer" class="layer">
  <use xlink:href="#iconloading" transform="translate(2308.0687,824.89782)" height="5032" width="4030" y="0" x="0"/>
  <use xlink:href="#iconloading" transform="translate(2150.5497,1034.7854)" height="5032" width="4030" y="0" x="0"/>
  <use xlink:href="#iconloading" transform="translate(1881.0491,1154.4588)" height="5032" width="4030" y="0" x="0"/>
  <use xlink:href="#iconloading" transform="translate(2135.4726,1344.8054)" height="5032" width="4030" y="0" x="0"/>
  <use xlink:href="#iconloading" transform="translate(2158.0881,1484.2671)" height="5032" width="4030" y="0" x="0"/>
  <use xlink:href="#iconloading" transform="translate(1815.0874,1408.8824)" height="5032" width="4030" y="0" x="0"/>
  <use xlink:href="#iconloading" transform="translate(1873.5106,1546.4596)" height="5032" width="4030" y="0" x="0"/>
  <use xlink:href="#iconloading" transform="translate(1773.6258,1604.8828)" height="5032" width="4030" y="0" x="0"/>
  <use xlink:href="#iconloading" transform="translate(1325.0864,1659.5368)" height="5032" width="4030" y="0" x="0"/>
  <use xlink:href="#iconloading" transform="translate(1244.0477,1580.3827)" height="5032" width="4030" y="0" x="0"/>
  <use xlink:href="#iconloading" transform="translate(1048.0468,1846.1141)" height="5032" width="4030" y="0" x="0"/>
  <use xlink:href="#iconloading" transform="translate(1151.7014,1836.691)" height="5032" width="4030" y="0" x="0"/>
  <use xlink:href="#iconloading" transform="translate(1210.1246,1913.9604)" height="5032" width="4030" y="0" x="0"/>
  <use xlink:href="#iconloading" transform="translate(1236.5092,2015.7298)" height="5032" width="4030" y="0" x="0"/>
  <use xlink:href="#iconloading" transform="translate(1366.548,1930.9219)" height="5032" width="4030" y="0" x="0"/>
  <use xlink:href="#iconloading" transform="translate(1383.5096,1804.6524)" height="5032" width="4030" y="0" x="0"/>
  <use xlink:href="#iconloading" transform="translate(1937.5876,1913.9604)" height="5032" width="4030" y="0" x="0"/>
  <use xlink:href="#iconloading" transform="translate(2011.0878,2043.9991)" height="5032" width="4030" y="0" x="0"/>
  <use xlink:href="#iconloading" transform="translate(1835.8182,2038.3452)" height="5032" width="4030" y="0" x="0"/>
  <use xlink:href="#iconloading" transform="translate(2028.0494,2190.9994)" height="5032" width="4030" y="0" x="0"/>
  <use xlink:href="#iconloading" transform="translate(1965.8569,2392.6537)" height="5032" width="4030" y="0" x="0"/>
  <use xlink:href="#iconloading" transform="translate(2126.0496,2277.6919)" height="5032" width="4030" y="0" x="0"/>
  <use xlink:href="#iconloading" transform="translate(2148.665,2451.0769)" height="5032" width="4030" y="0" x="0"/>
  <use xlink:href="#iconloading" transform="translate(2293.7807,2456.7307)" height="5032" width="4030" y="0" x="0"/>
  <use xlink:href="#iconloading" transform="translate(2314.5115,2341.7689)" height="5032" width="4030" y="0" x="0"/>
  <use xlink:href="#iconloading" transform="translate(2408.7425,2232.461)" height="5032" width="4030" y="0" x="0"/>
  <use xlink:href="#iconloading" transform="translate(2465.2811,2409.6152)" height="5032" width="4030" y="0" x="0"/>
  <use xlink:href="#iconloading" transform="translate(2476.5888,2681.0004)" height="5032" width="4030" y="0" x="0"/>
  <use xlink:href="#iconloading" transform="translate(2397.4348,2688.5389)" height="5032" width="4030" y="0" x="0"/>
  <use xlink:href="#iconloading" transform="translate(2602.5153,2396.5372)" height="5032" width="4030" y="0" x="0"/>
  <use xlink:href="#iconloading" transform="translate(2636.7814,2230.5764)" height="5032" width="4030" y="0" x="0"/>
  <use xlink:href="#iconloading" transform="translate(2648.0891,2027.0375)" height="5032" width="4030" y="0" x="0"/>
  <use xlink:href="#iconloading" transform="translate(2580.2428,1861.191)" height="5032" width="4030" y="0" x="0"/>
  <use xlink:href="#iconloading" transform="translate(2826.1857,2276.7496)" height="5032" width="4030" y="0" x="0"/>
  <use xlink:href="#iconloading" transform="translate(2877.7982,2550.3211)" height="5032" width="4030" y="0" x="0"/>
  <use xlink:href="#iconloading" transform="translate(1570.491,2086.5668)" height="5032" width="4030" y="0" x="0"/>
  <use xlink:href="#iconloading" transform="translate(1599.8088,2182.516)" height="5032" width="4030" y="0" x="0"/>
  <use xlink:href="#iconloading" transform="translate(1326.6202,2149.2003)" height="5032" width="4030" y="0" x="0"/>
  <use xlink:href="#iconloading" transform="translate(1208.0164,2295.1229)" height="5032" width="4030" y="0" x="0"/>
  <use xlink:href="#iconloading" transform="translate(1224.0079,2364.4196)" height="5032" width="4030" y="0" x="0"/>
  <use xlink:href="#iconloading" transform="translate(1459.8366,2638.5965)" height="5032" width="4030" y="0" x="0"/>
  <use xlink:href="#iconloading" transform="translate(1513.5483,2790.3083)" height="5032" width="4030" y="0" x="0"/>
  <use xlink:href="#iconloading" transform="translate(1424.9712,2728.1159)" height="5032" width="4030" y="0" x="0"/>
  <use xlink:href="#iconloading" transform="translate(1298.7016,2818.5776)" height="5032" width="4030" y="0" x="0"/>
  <use xlink:href="#iconloading" transform="translate(1303.4132,2946.7318)" height="5032" width="4030" y="0" x="0"/>
  <use xlink:href="#iconloading" transform="translate(1377.8557,3044.732)" height="5032" width="4030" y="0" x="0"/>
  <use xlink:href="#iconloading" transform="translate(1466.546,3064.7151)" height="5032" width="4030" y="0" x="0"/>
  <use xlink:href="#iconloading" transform="translate(1553.1668,2934.1177)" height="5032" width="4030" y="0" x="0"/>
  <use xlink:href="#iconloading" transform="translate(1607.8046,2958.1049)" height="5032" width="4030" y="0" x="0"/>
  <use xlink:href="#iconloading" transform="translate(1331.2114,3158.7514)" height="5032" width="4030" y="0" x="0"/>
  <use xlink:href="#iconloading" transform="translate(1394.3462,3226.1266)" height="5032" width="4030" y="0" x="0"/>
  <use xlink:href="#iconloading" transform="translate(1446.6443,3385.3769)" height="5032" width="4030" y="0" x="0"/>
  <use xlink:href="#iconloading" transform="translate(1333.2834,3376.5499)" height="5032" width="4030" y="0" x="0"/>
  <use xlink:href="#iconloading" transform="translate(1138.0535,3434.5191)" height="5032" width="4030" y="0" x="0"/>
  <use xlink:href="#iconloading" transform="translate(1197.4035,3791.5124)" height="5032" width="4030" y="0" x="0"/>
  <use xlink:href="#iconloading" transform="translate(1373.1442,3755.2335)" height="5032" width="4030" y="0" x="0"/>
  <use xlink:href="#iconloading" transform="translate(1492.5323,3580.4418)" height="5032" width="4030" y="0" x="0"/>
  <use xlink:href="#iconloading" transform="translate(1427.8998,3633.7469)" height="5032" width="4030" y="0" x="0"/>
  <use xlink:href="#iconloading" transform="translate(1952.955,3391.2088)" height="5032" width="4030" y="0" x="0"/>
 </g>
 <g id="numberlayer" transform="translate(-0.94230968,0)" class="layer">
  <use xlink:href="#iconlot44" transform="translate(12.917645,28.742055)" height="5032" width="4030" y="648.01001" x="1667.3"/>
  <use xlink:href="#iconlot66" transform="translate(31.333521,87.724216)" height="5032" width="4030" y="648.01001" x="1667.3"/>
  <use xlink:href="#iconlot44" transform="translate(345.08948,8.4296028)" height="5032" width="4030" y="648.01001" x="1667.3"/>
  <use xlink:href="#iconlot47" transform="translate(609.95367,197.64548)" height="5032" width="4030" y="648.01001" x="1667.3"/>
  <use xlink:href="#iconlot66" transform="translate(94.574007,238.49374)" height="5032" width="4030" y="648.01001" x="1667.3"/>
  <use xlink:href="#iconlot27" transform="translate(8.159629,430.75969)" height="5032" width="4030" y="648.01001" x="1667.3"/>
  <use xlink:href="#iconlot43" transform="translate(70.809363,548.70902)" height="5032" width="4030" y="648.01001" x="1667.3"/>
  <use xlink:href="#iconlot43" transform="translate(185.40362,810.46319)" height="5032" width="4030" y="648.01001" x="1667.3"/>
  <use xlink:href="#iconlot63" transform="translate(475.66172,745.73052)" height="5032" width="4030" y="648.01001" x="1667.3"/>
  <use xlink:href="#iconlot44" transform="translate(865.94793,466.56201)" height="5032" width="4030" y="648.01001" x="1667.3"/>
  <use xlink:href="#iconlot68" transform="translate(-480.55367,502.65596)" height="5032" width="4030" y="648.01001" x="1667.3"/>
  <use xlink:href="#iconlot31" transform="translate(-549.99003,525.65584)" height="5032" width="4030" y="648.01001" x="1667.3"/>
  <use xlink:href="#iconlot26" transform="translate(-766.97197,573.64783)" height="5032" width="4030" y="648.01001" x="1667.3"/>
  <use xlink:href="#iconlot45" transform="translate(-661.13555,819.56549)" height="5032" width="4030" y="648.01001" x="1667.3"/>
  <use xlink:href="#iconlot65" transform="translate(-371.32594,882.01224)" height="5032" width="4030" y="648.01001" x="1667.3"/>
  <use xlink:href="#iconlot65" transform="translate(-310.53416,1088.7024)" height="5032" width="4030" y="648.01001" x="1667.3"/>
  <use xlink:href="#iconlot65" transform="translate(-221.63264,1114.0304)" height="5032" width="4030" y="648.01001" x="1667.3"/>
  <use xlink:href="#iconlot65" transform="translate(-525.9317,1070.5688)" height="5032" width="4030" y="648.01001" x="1667.3"/>
  <use xlink:href="#iconlot41" transform="translate(-710.303,1157.2678)" height="5032" width="4030" y="648.01001" x="1667.3"/>
  <use xlink:href="#iconlot25" transform="translate(-919.46004,1143.3736)" height="5032" width="4030" y="648.01001" x="1667.3"/>
  <use xlink:href="#iconlot25" transform="translate(-875.99841,1251.8547)" height="5032" width="4030" y="648.01001" x="1667.3"/>
  <use xlink:href="#iconlot12" transform="translate(-1161.5565,1171.7582)" height="5032" width="4030" y="648.01001" x="1667.3"/>
  <use xlink:href="#iconlot12" transform="translate(-1194.5419,1260.3053)" height="5032" width="4030" y="648.01001" x="1667.3"/>
  <use xlink:href="#iconlot65" transform="translate(-421.53588,1252.2092)" height="5032" width="4030" y="648.01001" x="1667.3"/>
  <use xlink:href="#iconlot41" transform="translate(-548.5458,1360.2204)" height="5032" width="4030" y="648.01001" x="1667.3"/>
  <use xlink:href="#iconlot30" transform="translate(-403.90127,1456.5667)" height="5032" width="4030" y="648.01001" x="1667.3"/>
  <use xlink:href="#iconlot64" transform="translate(-311.91856,1493.8597)" height="5032" width="4030" y="648.01001" x="1667.3"/>
  <use xlink:href="#iconlot30" transform="translate(-647.48831,1588.2594)" height="5032" width="4030" y="648.01001" x="1667.3"/>
  <use xlink:href="#iconlot39" transform="translate(-606.969,1674.4805)" height="5032" width="4030" y="648.01001" x="1667.3"/>
  <use xlink:href="#iconlot64" transform="translate(-494.73945,1640.4213)" height="5032" width="4030" y="648.01001" x="1667.3"/>
  <use xlink:href="#iconlot64" transform="translate(-447.71866,1809.5543)" height="5032" width="4030" y="648.01001" x="1667.3"/>
  <use xlink:href="#iconlot67" transform="translate(-921.92151,1727.9711)" height="5032" width="4030" y="648.01001" x="1667.3"/>
  <use xlink:href="#iconlot36" transform="translate(-1316.1724,1628.894)" height="5032" width="4030" y="648.01001" x="1667.3"/>
  <use xlink:href="#iconlot64" transform="translate(-309.52823,1818.9372)" height="5032" width="4030" y="648.01001" x="1667.3"/>
  <use xlink:href="#iconlot42" transform="translate(-361.11215,2371.7444)" height="5032" width="4030" y="648.01001" x="1667.3"/>
  <use xlink:href="#iconlot50" transform="translate(-307.43319,2542.7669)" height="5032" width="4030" y="648.01001" x="1667.3"/>
  <use xlink:href="#iconlot50" transform="translate(-468.74943,2568.4852)" height="5032" width="4030" y="648.01001" x="1667.3"/>
  <use xlink:href="#iconlot71" transform="translate(-87.769383,2386.9797)" height="5032" width="4030" y="648.01001" x="1667.3"/>
  <use xlink:href="#iconlot32" transform="translate(-18.234075,2596.005)" height="5032" width="4030" y="648.01001" x="1667.3"/>
  <use xlink:href="#iconlot50" transform="translate(-206.31618,2698.1948)" height="5032" width="4030" y="648.01001" x="1667.3"/>
  <use xlink:href="#iconlot50" transform="translate(-351.23266,2740.2368)" height="5032" width="4030" y="648.01001" x="1667.3"/>
  <use xlink:href="#iconlot50" transform="translate(-382.6979,2713.9381)" height="5032" width="4030" y="648.01001" x="1667.3"/>
  <use xlink:href="#iconlot54" transform="translate(-425.38029,2794.4457)" height="5032" width="4030" y="648.01001" x="1667.3"/>
  <use xlink:href="#iconlot33" transform="translate(-695.92255,2749.7138)" height="5032" width="4030" y="648.01001" x="1667.3"/>
  <use xlink:href="#iconlot14" transform="translate(-928.24043,2698.2246)" height="5032" width="4030" y="648.01001" x="1667.3"/>
  <use xlink:href="#iconlot21" transform="translate(-714.73847,3006.4353)" height="5032" width="4030" y="648.01001" x="1667.3"/>
  <use xlink:href="#iconlot22" transform="translate(-690.00765,3227.8781)" height="5032" width="4030" y="648.01001" x="1667.3"/>
  <use xlink:href="#iconlot50" transform="translate(-473.83714,2935.5237)" height="5032" width="4030" y="648.01001" x="1667.3"/>
  <use xlink:href="#iconlot50" transform="translate(-477.73698,3113.9486)" height="5032" width="4030" y="648.01001" x="1667.3"/>
  <use xlink:href="#iconlot50" transform="translate(-364.47429,3156.4679)" height="5032" width="4030" y="648.01001" x="1667.3"/>
  <use xlink:href="#iconlot50" transform="translate(-163.11774,3029.8555)" height="5032" width="4030" y="648.01001" x="1667.3"/>
  <use xlink:href="#iconlot35" transform="translate(782.07632,2845.8663)" height="5032" width="4030" y="648.01001" x="1667.3"/>
  <use xlink:href="#iconlot20" transform="translate(269.00296,2744.3892)" height="5032" width="4030" y="648.01001" x="1667.3"/>
  <use xlink:href="#iconlot32" transform="translate(140.04237,2538.7809)" height="5032" width="4030" y="648.01001" x="1667.3"/>
  <use xlink:href="#iconlot34" transform="translate(386.48404,2461.2484)" height="5032" width="4030" y="648.01001" x="1667.3"/>
  <use xlink:href="#iconlot62" transform="translate(208.07193,1838.1098)" height="5032" width="4030" y="648.01001" x="1667.3"/>
  <use xlink:href="#iconlot63" transform="translate(394.01001,1591.9554)" height="5032" width="4030" y="648.01001" x="1667.3"/>
  <use xlink:href="#iconlot62" transform="translate(469.16812,1867.6617)" height="5032" width="4030" y="648.01001" x="1667.3"/>
  <use xlink:href="#iconlot62" transform="translate(606.74533,1597.69)" height="5032" width="4030" y="648.01001" x="1667.3"/>
  <use xlink:href="#iconlot63" transform="translate(554.32159,1844.8275)" height="5032" width="4030" y="648.01001" x="1667.3"/>
  <use xlink:href="#iconlot52" transform="translate(746.33692,2157.8871)" height="5032" width="4030" y="648.01001" x="1667.3"/>
  <use xlink:href="#iconlot46" transform="translate(779.16486,2303.8103)" height="5032" width="4030" y="648.01001" x="1667.3"/>
  <use xlink:href="#iconlot46" transform="translate(832.88943,2041.6106)" height="5032" width="4030" y="648.01001" x="1667.3"/>
  <use xlink:href="#iconlot46" transform="translate(773.58526,1661.4971)" height="5032" width="4030" y="648.01001" x="1667.3"/>
  <use xlink:href="#iconlot63" transform="translate(388.79477,1426.3606)" height="5032" width="4030" y="648.01001" x="1667.3"/>
  <use xlink:href="#iconlot29" transform="translate(1020.2436,1823.9669)" height="5032" width="4030" y="648.01001" x="1667.3"/>
  <use xlink:href="#iconlot29" transform="translate(1083.2946,1810.2064)" height="5032" width="4030" y="648.01001" x="1667.3"/>
  <use xlink:href="#iconlot29" transform="translate(967.60415,1739.1395)" height="5032" width="4030" y="648.01001" x="1667.3"/>
  <use xlink:href="#iconlot49" transform="translate(1256.9569,1872.9916)" height="5032" width="4030" y="648.01001" x="1667.3"/>
  <use xlink:href="#iconlot63" transform="translate(289.80151,1022.7755)" height="5032" width="4030" y="648.01001" x="1667.3"/>
  <use xlink:href="#iconlot67" transform="translate(-1232.5717,2098.7215)" height="5032" width="4030" y="648.01001" x="1667.3"/>
  <use xlink:href="#iconlot11" transform="translate(-1079.0977,3460.5061)" height="5032" width="4030" y="648.01001" x="1667.3"/>
  <use xlink:href="#iconlot49" transform="translate(1157.6966,1600.9248)" height="5032" width="4030" y="648.01001" x="1667.3"/>
  <use xlink:href="#iconlot49" transform="translate(1022.348,1545.8875)" height="5032" width="4030" y="648.01001" x="1667.3"/>
  <use xlink:href="#iconlot29" transform="translate(886.55503,1447.4635)" height="5032" width="4030" y="648.01001" x="1667.3"/>
  <use xlink:href="#iconlot49" transform="translate(1012.1247,1420.6539)" height="5032" width="4030" y="648.01001" x="1667.3"/>
  <use xlink:href="#iconlot49" transform="translate(954.78149,1190.6875)" height="5032" width="4030" y="648.01001" x="1667.3"/>
  <use xlink:href="#iconlot49" transform="translate(889.81689,1117.393)" height="5032" width="4030" y="648.01001" x="1667.3"/>
  <use xlink:href="#iconlot49" transform="translate(1240.6311,1325.2818)" height="5032" width="4030" y="648.01001" x="1667.3"/>
  <use xlink:href="#iconlot24" transform="translate(1334.3697,743.90812)" height="5032" width="4030" y="648.01001" x="1667.3"/>
  <use xlink:href="#iconlot13" transform="translate(1712.9592,732.642)" height="5032" width="4030" y="648.01001" x="1667.3"/>
  <use xlink:href="#iconlot13" transform="translate(1761.9591,561.37724)" height="5032" width="4030" y="648.01001" x="1667.3"/>
  <use xlink:href="#iconlot13" transform="translate(1978.2194,594.35812)" height="5032" width="4030" y="648.01001" x="1667.3"/>
  <use xlink:href="#iconlot24" transform="translate(1996.4901,636.12696)" height="5032" width="4030" y="648.01001" x="1667.3"/>
  <use xlink:href="#iconlot24" transform="translate(2019.8259,751.60822)" height="5032" width="4030" y="648.01001" x="1667.3"/>
  <use xlink:href="#iconlot23" transform="translate(1609.9609,255.80124)" height="5032" width="4030" y="648.01001" x="1667.3"/>
  <use xlink:href="#iconlot28" transform="translate(1764.8176,176.10968)" height="5032" width="4030" y="648.01001" x="1667.3"/>
  <use xlink:href="#iconlot24" transform="translate(1609.3409,95.200552)" height="5032" width="4030" y="648.01001" x="1667.3"/>
  <use xlink:href="#iconlot24" transform="translate(1762.1738,-1.5950903)" height="5032" width="4030" y="648.01001" x="1667.3"/>
  <use xlink:href="#iconlot24" transform="translate(1947.2484,14.033826)" height="5032" width="4030" y="648.01001" x="1667.3"/>
  <use xlink:href="#iconlot24" transform="translate(2009.8461,114.11479)" height="5032" width="4030" y="648.01001" x="1667.3"/>
  <use xlink:href="#iconlot29" transform="translate(860.44632,1492.7694)" height="5032" width="4030" y="648.01001" x="1667.3"/>
  <use xlink:href="#iconlot50" transform="translate(-270.02572,3093.0389)" height="5032" width="4030" y="648.01001" x="1667.3"/>
  <use xlink:href="#iconlot52" transform="translate(717.47862,2068.2554)" height="5032" width="4030" y="648.01001" x="1667.3"/>
 </g>
</svg>
