<?xml version="1.0" encoding="UTF-8" standalone="no"?>
<!-- Created with Inkscape (http://www.inkscape.org/) -->

<svg
   xmlns:dc="http://purl.org/dc/elements/1.1/"
   xmlns:cc="http://creativecommons.org/ns#"
   xmlns:rdf="http://www.w3.org/1999/02/22-rdf-syntax-ns#"
   xmlns:svg="http://www.w3.org/2000/svg"
   xmlns="http://www.w3.org/2000/svg"
   xmlns:sodipodi="http://sodipodi.sourceforge.net/DTD/sodipodi-0.dtd"
   xmlns:inkscape="http://www.inkscape.org/namespaces/inkscape"
   id="svg4086"
   viewBox="0 0 48 32"
   version="1.1"
   inkscape:version="0.48.4 r9939"
   width="100%"
   height="100%"
   sodipodi:docname="bike.svg">
  <defs
     id="defs4487" />
  <sodipodi:namedview
     pagecolor="#ffffff"
     bordercolor="#666666"
     borderopacity="1"
     objecttolerance="10"
     gridtolerance="10"
     guidetolerance="10"
     inkscape:pageopacity="0"
     inkscape:pageshadow="2"
     inkscape:window-width="1385"
     inkscape:window-height="876"
     id="namedview4485"
     showgrid="false"
     borderlayer="true"
     inkscape:zoom="4.9166667"
     inkscape:cx="24"
     inkscape:cy="24"
     inkscape:window-x="55"
     inkscape:window-y="174"
     inkscape:window-maximized="1"
     inkscape:current-layer="svg4086" />
  <metadata
     id="metadata4091">
    <rdf:RDF>
      <cc:Work
         rdf:about="">
        <dc:format>image/svg+xml</dc:format>
        <dc:type
           rdf:resource="http://purl.org/dc/dcmitype/StillImage" />
        <dc:title />
      </cc:Work>
    </rdf:RDF>
  </metadata>
  <g
     id="layer1"
     transform="matrix(0.70738061,0,0,0.70738061,6.3979071,-3.7564547)">
    <path
       id="path4084"
       d="m 38.981,41.104 c 2.249,-0.21436 4.3039,-1.1555 5.8843,-2.695 1.5539,-1.5136 2.4889,-3.3441 2.7965,-5.4747 0.07905,-0.5476 0.08997,-1.8778 0.01949,-2.3726 -0.21023,-1.4759 -0.72804,-2.8824 -1.474,-4.0038 -1.2539,-1.8849 -3.1544,-3.2928 -5.2985,-3.9252 -1.0413,-0.30712 -1.8738,-0.41111 -3.0693,-0.38339 -1.1311,0.02622 -1.935,0.16492 -2.9152,0.503 l -0.405,0.14 -1.15,-2.226 c -0.63235,-1.2246 -1.674,-3.2442 -2.3147,-4.4879 -0.9974,-1.9361 -1.1937,-2.2925 -1.3643,-2.4774 -0.337,-0.36533 -0.27078,-0.35596 -2.5242,-0.35738 -1.8272,-0.0011 -1.9264,0.0023 -2.115,0.07285 -0.8035,0.30063 -0.76056,1.4793 0.06286,1.725 0.1485,0.04431 0.48004,0.05454 1.7661,0.05454 h 1.5833 l 1.0803,2.0934 1.0803,2.0934 -0.95254,1.345 c -0.5239,0.73977 -1.1889,1.6787 -1.4779,2.0865 -0.60564,0.85481 -4.0194,5.6788 -4.4026,6.2215 -0.14144,0.20025 -0.26203,0.35873 -0.26798,0.35218 -0.02477,-0.02727 -2.5073,-8.7875 -2.494,-8.8008 0.008,-0.0079 0.28866,0.045 0.62374,0.11774 0.66139,0.14358 0.83791,0.14703 1.1208,0.02188 0.37866,-0.1675 0.65618,-0.57886 0.65618,-0.97264 0,-0.45592 -0.25176,-0.87001 -0.62711,-1.0315 -0.10144,-0.04365 -0.68165,-0.18623 -1.2893,-0.31686 l -1.1049,-0.23752 -1.5841,-0.04374 c -1.5863,-0.0438 -1.7824,-0.03779 -2.0212,0.06198 -0.19938,0.0833 -0.47342,0.36297 -0.56556,0.57717 -0.11619,0.2701 -0.09468,0.72056 0.04576,0.95845 0.132,0.22358 0.30866,0.38493 0.52912,0.48326 0.1696,0.07564 0.27034,0.08537 1.1845,0.11437 0.54952,0.01744 1.0065,0.03911 1.0156,0.04818 0.009,0.0091 0.67846,2.3399 1.4876,5.1796 l 1.4711,5.1631 -1.2041,0.0097 c -0.66226,0.0053 -1.2091,0.0048 -1.2151,-0.0013 -0.0064,-0.006 -0.03723,-0.18737 -0.06924,-0.40293 -0.21306,-1.4348 -0.82807,-2.9481 -1.6627,-4.0913 -1.5301,-2.0956 -3.8169,-3.4868 -6.4016,-3.8945 -0.52272,-0.08244 -1.9021,-0.11316 -2.4729,-0.05506 -2.2097,0.2249 -4.2726,1.1952 -5.8351,2.7447 -1.5303,1.5175 -2.4323,3.3378 -2.7463,5.5423 -0.07045,0.49484 -0.059593,1.825 0.019462,2.3726 0.30754,2.1306 1.2425,3.961 2.7964,5.4747 1.6041,1.5625 3.6413,2.4853 5.9585,2.6991 2.1311,0.1966 4.3924,-0.38694 6.2281,-1.6072 2.0089,-1.3354 3.4438,-3.4014 3.9813,-5.7324 0.0641,-0.27793 0.18927,-1.0342 0.18927,-1.1434 0,-0.02834 0.55844,-0.04342 1.8825,-0.05085 l 1.8825,-0.01054 0.18355,-0.0945 c 0.22945,-0.11812 0.27973,-0.18149 1.3528,-1.7053 0.47916,-0.6804 1.6636,-2.3566 2.6321,-3.725 0.96851,-1.3683 2.2864,-3.2317 2.9287,-4.1407 0.64227,-0.90905 1.1784,-1.6419 1.1913,-1.6286 0.03967,0.04083 1.2555,2.4091 1.2555,2.4455 0,0.01878 -0.07091,0.08066 -0.15756,0.1375 -0.63681,0.41777 -1.4933,1.1842 -2.0084,1.7972 -1.4432,1.7174 -2.2085,3.805 -2.2085,6.0242 0,2.9133 1.2886,5.551 3.6145,7.399 1.885,1.4977 4.4779,2.2615 6.8954,2.031 z m -1.7623,-2.2355 c -1.9385,-0.24172 -3.6261,-1.1446 -4.8407,-2.5897 -0.88353,-1.0513 -1.4248,-2.2481 -1.6243,-3.5914 -0.07589,-0.51112 -0.07654,-1.5042 -0.0013,-2.0054 0.23695,-1.5788 0.94275,-2.9663 2.0813,-4.0916 0.32168,-0.31792 1.0346,-0.89584 1.0645,-0.86298 0.0074,0.0082 0.59294,1.138 1.301,2.5105 l 1.2874,2.4956 -0.10437,0.22922 c -0.14548,0.3195 -0.17162,0.89972 -0.05746,1.2756 0.27175,0.89468 1.2237,1.4522 2.1466,1.2573 0.72689,-0.15355 1.312,-0.72546 1.4572,-1.4243 0.06149,-0.29594 0.02584,-0.79324 -0.07491,-1.0454 -0.27473,-0.68747 -0.85424,-1.1043 -1.6626,-1.1959 -0.10214,-0.01157 -0.03539,0.1101 -1.4698,-2.6789 -0.58724,-1.1418 -1.0923,-2.1157 -1.1225,-2.1641 -0.07107,-0.11426 -0.06034,-0.12045 0.45263,-0.26132 1.2392,-0.34032 2.545,-0.36703 3.8167,-0.07809 0.6892,0.1566 1.7162,0.59732 2.3382,1.0034 0.85383,0.55744 1.5974,1.2971 2.1415,2.1304 2.3465,3.5934 1.0574,8.3257 -2.8088,10.311 -0.75735,0.38892 -1.5941,0.65366 -2.3726,0.75069 -0.18351,0.02284 -0.37536,0.04761 -0.42633,0.055 -0.244,0.03523 -1.1417,0.01786 -1.5214,-0.02951 z m -28.469,-0.038 c -2.1102,-0.36 -3.8499,-1.471 -5.0272,-3.21 -1.4133,-2.088 -1.5896,-4.83 -0.4559,-7.091 0.72951,-1.4549 1.8609,-2.5724 3.3509,-3.3099 1.0531,-0.52122 2.0896,-0.76078 3.2994,-0.76253 1.0679,-0.0016 1.9164,0.15904 2.8659,0.5424 2.4058,0.97139 4.1008,3.0896 4.5036,5.6279 l 0.01616,0.10194 -2.8772,-0.0028 -2.8772,-0.0028 -0.15037,-0.19187 c -0.74286,-0.94784 -2.2752,-0.91566 -2.9575,0.06211 -0.26137,0.37455 -0.35833,0.66785 -0.35722,1.0806 8.042e-4,0.32568 0.047208,0.52836 0.18812,0.82368 0.4579,0.95946 1.7098,1.3256 2.6438,0.77331 0.17883,-0.10574 0.51328,-0.42731 0.60378,-0.58051 l 0.06393,-0.10822 h 2.8651 c 1.5758,0 2.8651,0.0065 2.8651,0.01444 0,0.0079 -0.02581,0.15391 -0.05742,0.32438 -0.23442,1.265 -0.75587,2.3676 -1.5881,3.3578 -1.2031,1.4315 -2.8551,2.3222 -4.805,2.5906 -0.46023,0.06337 -1.6388,0.04142 -2.1126,-0.03941 z"
       inkscape:connector-curvature="0"
       style="fill:#000000" />
  </g>
</svg>
