<?xml version="1.0" encoding="UTF-8" standalone="no"?>
<!-- Created with Inkscape (http://www.inkscape.org/) -->

<svg
   xmlns:dc="http://purl.org/dc/elements/1.1/"
   xmlns:cc="http://creativecommons.org/ns#"
   xmlns:rdf="http://www.w3.org/1999/02/22-rdf-syntax-ns#"
   xmlns:svg="http://www.w3.org/2000/svg"
   xmlns="http://www.w3.org/2000/svg"
   xmlns:sodipodi="http://sodipodi.sourceforge.net/DTD/sodipodi-0.dtd"
   xmlns:inkscape="http://www.inkscape.org/namespaces/inkscape"
   id="svg3956"
   viewBox="0 0 48 32"
   version="1.1"
   inkscape:version="0.48.4 r9939"
   width="100%"
   height="100%"
   sodipodi:docname="bus.svg">
  <defs
     id="defs4505" />
  <sodipodi:namedview
     pagecolor="#ffffff"
     bordercolor="#666666"
     borderopacity="1"
     objecttolerance="10"
     gridtolerance="10"
     guidetolerance="10"
     inkscape:pageopacity="0"
     inkscape:pageshadow="2"
     inkscape:window-width="1385"
     inkscape:window-height="876"
     id="namedview4503"
     showgrid="false"
     inkscape:zoom="4.9166667"
     inkscape:cx="24"
     inkscape:cy="24"
     inkscape:window-x="55"
     inkscape:window-y="174"
     inkscape:window-maximized="1"
     inkscape:current-layer="svg3956" />
  <metadata
     id="metadata3961">
    <rdf:RDF>
      <cc:Work
         rdf:about="">
        <dc:format>image/svg+xml</dc:format>
        <dc:type
           rdf:resource="http://purl.org/dc/dcmitype/StillImage" />
        <dc:title />
      </cc:Work>
    </rdf:RDF>
  </metadata>
  <g
     id="layer1"
     transform="matrix(0.60432935,0,0,0.60432935,9.2770735,1.8451665)">
    <path
       id="path3954"
       d="M 9.9803,47.631 C 8.9522,47.459 8.1366,46.776 7.8174,45.821 7.698,45.464 7.6859,45.287 7.6651,43.597 L 7.64244,41.7608 h -1.6077 -1.6077 v -9.9207 -9.9207 l 0.95467,-7.1423 c 0.54728,-4.0945 1.0051,-7.3176 1.0728,-7.5531 0.53425,-1.8574 1.833,-3.0119 4.6305,-4.1165 2.2923,-0.90507 6.7058,-1.8064 10.48,-2.14 1.1117,-0.098298 3.4265,-0.098298 4.5382,0 3.8594,0.34125 8.3363,1.268 10.569,2.1878 1.9116,0.78749 2.8873,1.404 3.6115,2.282 0.72169,0.87494 0.97387,1.5874 1.2217,3.4517 0.32395,2.4365 0.68889,5.2129 1.1381,8.6582 0.06851,0.52548 0.23088,1.7655 0.36082,2.7557 l 0.23626,1.8003 v 9.8288 9.8288 h -1.6078 -1.6077 l -0.02102,1.866 c -0.01974,1.7532 -0.029,1.8875 -0.15368,2.222 -0.39337,1.0551 -1.2505,1.6943 -2.4179,1.8033 -1.0679,0.09972 -2.1946,-0.46803 -2.6594,-1.34 -0.32777,-0.61497 -0.36822,-0.92547 -0.3692,-2.8345 l -7.13e-4,-1.7167 h -10.569 -10.569 v 1.7287 c 0,1.0419 -0.02643,1.8544 -0.06654,2.0452 -0.29646,1.4095 -1.7321,2.3449 -3.2177,2.0965 z M 11.345,35.426 c 0.69838,-0.23951 1.2365,-0.72494 1.5786,-1.424 0.18074,-0.36932 0.19196,-0.43068 0.19196,-1.0491 0,-0.61574 -0.01204,-0.68221 -0.19198,-1.0622 -0.655,-1.382 -2.274,-1.963 -3.6565,-1.313 -0.4255,0.201 -1.0082,0.782 -1.2199,1.217 -0.23293,0.47865 -0.31544,1.0442 -0.22732,1.5581 0.27942,1.6294 1.9509,2.6127 3.5243,2.0731 z m 26.64,0.0238 c 2.2422,-0.61634 2.5382,-3.7987 0.44928,-4.8312 -1.4094,-0.69659 -2.9967,-0.16432 -3.6667,1.2296 -0.20751,0.43171 -0.21522,0.47151 -0.21372,1.1047 0.0014,0.61143 0.01468,0.68484 0.19118,1.0618 0.24822,0.53006 0.77117,1.0581 1.2869,1.2994 0.61916,0.28974 1.2365,0.33261 1.9531,0.13563 z m 1.2084,-12.097 c 0.41931,-0.24649 0.59992,-0.59116 0.62989,-1.2021 0.032,-0.647 -1.4,-10.85 -1.626,-11.59 -0.168,-0.549 -0.35,-0.8245 -0.701,-1.0599 -0.546,-0.3666 0.36,-0.3438 -13.662,-0.3438 -14.029,0 -13.134,-0.0221 -13.678,0.338 -0.5887,0.3893 -0.7005,0.7637 -1.1314,3.7817 -1.1966,8.384 -1.2047,8.445 -1.1792,8.898 0.03968,0.70505 0.29625,1.0841 0.87409,1.2913 0.17495,0.0627 3.0563,0.07501 15.204,0.06483 l 14.988,-0.01254 z M 32.3314,6.6878 C 33.1303,6.354 33.21968,5.1227 32.48055,4.6335 L 32.23281,4.46954 23.98811,4.4518 c -8.627,-0.018596 -8.5225,-0.021372 -8.888,0.23851 -0.37616,0.26745 -0.54799,1.0297 -0.32712,1.4512 0.11714,0.22352 0.38583,0.48197 0.58225,0.56007 0.09624,0.038259 3.1043,0.060702 8.4662,0.063124 6.8567,0.00285 8.3508,-0.010402 8.51,-0.076882 z"
       inkscape:connector-curvature="0"
       style="fill:#000000" />
  </g>
</svg>
