<?xml version="1.0" encoding="UTF-8" standalone="no"?>
<!-- Created with Inkscape (http://www.inkscape.org/) -->
<svg id="svg3956" xmlns:rdf="http://www.w3.org/1999/02/22-rdf-syntax-ns#" xmlns="http://www.w3.org/2000/svg" viewBox="0 0 96 64" height="100%" width="100%" version="1.1" xmlns:cc="http://creativecommons.org/ns#" xmlns:dc="http://purl.org/dc/elements/1.1/">
 <metadata id="metadata3961">
  <rdf:RDF>
   <cc:Work rdf:about="">
    <dc:format>image/svg+xml</dc:format>
    <dc:type rdf:resource="http://purl.org/dc/dcmitype/StillImage"/>
    <dc:title/>
   </cc:Work>
  </rdf:RDF>
 </metadata>
 <g id="layer1" transform="matrix(1.2704972,0,0,1.2704972,17.50258,-1.7677791)">
  <path id="path3954" fill="#000" d="M6.5542,45.984c-0.9313-0.257-1.7667-0.911-2.1633-1.693-0.3869-0.764-0.441-1.209-0.4422-3.641l-0.0009458-2.2392h-3.8046v-6.5426c0-5.6744,0.016739-6.6236,0.12616-7.1534,0.249-1.2055,0.74476-2.0798,1.679-2.9612,0.57252-0.54008,1.5796-1.121,2.1187-1.2221,0.14927-0.02799,0.30528-0.09173,0.3467-0.1417,0.041423-0.04994,0.97181-2.336,2.0675-5.0802,1.0957-2.7441,2.117-5.2268,2.2695-5.5169,0.57555-1.0953,1.5956-1.9524,2.8546-2.3988l0.70474-0.24984,3.5016-0.025724,3.5016-0.025724,9.4043-0.030641,3.448,0.045489c3.8071,0.050218,3.8572,0.056271,4.9212,0.59209,1.1518,0.58004,1.9647,1.5174,2.5564,2.948,0.15803,0.38206,0.76536,1.9074,1.3496,3.3896,0.58425,1.4822,1.3911,3.5268,1.7929,4.5434,0.40188,1.0167,0.77162,1.8592,0.82166,1.8724,1.1391,0.299,1.7879,0.67176,2.6294,1.5106,0.49426,0.49266,0.71082,0.7844,0.97083,1.3078,0.64245,1.2934,0.60519,0.80014,0.63307,8.3821l0.02487,6.7572h-3.8898v2.3216c0,2.9675-0.09344,3.3826-0.97062,4.31-1.4434,1.5262-4.1365,1.3687-5.414-0.31653-0.63453-0.83706-0.69369-1.1542-0.73078-3.9174l-0.03216-2.3977h-25.746v2.2551c0,1.3558-0.03527,2.4226-0.08843,2.6751-0.27243,1.2937-1.2412,2.2979-2.5539,2.6474-0.50121,0.13345-1.3928,0.13148-1.8846-0.0038zm1.6767-15.342c0.9073-0.172,1.712-0.716,2.2051-1.491,0.578-0.908,0.652-2.223,0.18-3.205-0.326-0.68-0.8835-1.24-1.5718-1.579-0.5087-0.25-0.5798-0.263-1.4093-0.263-0.8229,0-0.90379,0.01475-1.3946,0.25498-0.65763,0.32182-1.2664,0.95353-1.5944,1.6545-0.55946,1.1956-0.29808,2.7247,0.63274,3.7016,0.35024,0.36759,0.96926,0.71929,1.5183,0.86264,0.61433,0.1604,0.86931,0.17192,1.434,0.06488zm32.662,0.00016c1.3763-0.25687,2.4862-1.401,2.6712-2.7535,0.10001-0.7313-0.0066-1.378-0.3361-2.0454-0.34012-0.68817-0.80605-1.1367-1.5514-1.4933-0.48004-0.22971-0.57473-0.24653-1.3871-0.24653-0.79414,0-0.91213,0.01976-1.3231,0.22156-0.69918,0.34335-1.2044,0.84702-1.549,1.5442-0.29317,0.59318-0.2985,0.62035-0.2985,1.5213,0,0.87148,0.01267,0.943,0.25323,1.4317,0.44062,0.89504,1.2492,1.551,2.2039,1.788,0.50292,0.12482,0.78363,0.13167,1.3168,0.03215zm-1.435-10.413c0-0.0418-0.32435-0.90142-0.87089-2.3081-0.25407-0.65392-0.86149-2.2233-1.3498-3.4876-0.48832-1.2643-0.95924-2.4413-1.0465-2.6157-0.20901-0.41787-0.50511-0.72868-0.89416-0.9386l-0.316-0.17h-21.956l-0.31706,0.1714c-0.40041,0.21646-0.76644,0.6032-0.98625,1.0421-0.15084,0.30117-2.9907,7.7016-3.1311,8.1594l-0.0544,0.18h15.462c8.5039,0,15.462-0.01362,15.462-0.03017z"/>
 </g>
</svg>
