<?xml version="1.0" encoding="UTF-8" standalone="no"?>
<svg xmlns:rdf="http://www.w3.org/1999/02/22-rdf-syntax-ns#" xmlns="http://www.w3.org/2000/svg" height="100%" viewBox="0 0 24.000516 23.968749" width="100%" version="1.1" xmlns:cc="http://creativecommons.org/ns#" xmlns:dc="http://purl.org/dc/elements/1.1/">
 <metadata>
  <rdf:RDF>
   <cc:Work rdf:about="">
    <dc:format>image/svg+xml</dc:format>
    <dc:type rdf:resource="http://purl.org/dc/dcmitype/StillImage"/>
    <dc:title/>
   </cc:Work>
  </rdf:RDF>
 </metadata>
 <g id="icon">
  <path d="m23.472,11.998a11.477,11.477,0,0,1,-22.954,0,11.477,11.477,0,1,1,22.954,0z" stroke="#000" stroke-dasharray="none" stroke-miterlimit="4" stroke-width="1.03681278" fill="#FF6"/>
  <path d="m9.4345,12.247,0,4.2875,2.5396,0c0.85177,0.000001,1.4814-0.17505,1.889-0.52516,0.4128-0.35532,0.61923-0.89617,0.61923-1.6225-0.000008-0.73156-0.20641-1.2698-0.61923-1.6147-0.40759-0.3501-1.0372-0.52515-1.889-0.52515h-2.5398m0-4.8126,0,3.5272,2.3436,0c0.7734,0.000007,1.3482-0.14369,1.7244-0.4311,0.38145-0.29262,0.57218-0.7368,0.57219-1.3325-0.000007-0.59046-0.19074-1.032-0.57219-1.3246-0.376-0.2921-0.951-0.4384-1.724-0.4384h-2.344m-1.5833-1.3011,4.0444,0c1.207,0.0000108,2.1372,0.25083,2.7904,0.75247,0.65318,0.50165,0.9798,1.2149,0.9798,2.1398-0.000009,0.7159-0.16722,1.2854-0.50164,1.7087-0.33443,0.42327-0.82559,0.68713-1.4735,0.7917,0.77857,0.16722,1.3821,0.51732,1.8106,1.0503,0.4337,0.52777,0.65056,1.1887,0.65056,1.9831-0.00001,1.0451-0.35534,1.8524-1.066,2.422-0.71066,0.56958-1.7218,0.8544-3.0334,0.8544h-4.2038v-11.702" fill="#000"/>
 </g>
</svg>
