<?xml version="1.0" encoding="UTF-8" standalone="no"?>
<!-- Created with Inkscape (http://www.inkscape.org/) -->
<svg id="svg4377" xmlns:rdf="http://www.w3.org/1999/02/22-rdf-syntax-ns#" xmlns="http://www.w3.org/2000/svg" viewBox="0 0 48 32" version="1.1" xmlns:cc="http://creativecommons.org/ns#" xmlns:dc="http://purl.org/dc/elements/1.1/">
 <metadata id="metadata4382">
  <rdf:RDF>
   <cc:Work rdf:about="">
    <dc:format>image/svg+xml</dc:format>
    <dc:type rdf:resource="http://purl.org/dc/dcmitype/StillImage"/>
    <dc:title/>
   </cc:Work>
  </rdf:RDF>
 </metadata>
 <g id="layer1" transform="translate(0,-16)">
  <path id="path4364" fill="#000" d="m15.69,46.05c-0.33176-0.05261-0.61084-0.19693-0.85727-0.44336-0.19619-0.1962-0.3105-0.38102-0.39534-0.63922-0.0454-0.13814-0.05509-0.21106-0.05686-0.42729-0.0023-0.28109,0.01535-0.37212,0.12433-0.64093,0.03633-0.08962,0.73493-1.2856,1.5524-2.6577l1.4864-2.4948,0.13904-0.61211c0.53359-2.3491,2.3303-10.324,2.3267-10.327-0.0024-0.0024-0.36547,0.28756-0.80683,0.64434l-0.80248,0.64869-0.23495,1.0715c-0.64785,2.9546-0.64255,2.9319-0.72216,3.0935-0.10177,0.20654-0.29254,0.39764-0.49709,0.49797-0.38536,0.18902-0.84161,0.11204-1.1562-0.19505-0.20472-0.19988-0.3386-0.56937-0.30221-0.83411,0.0076-0.05514,0.24283-1.1317,0.52278-2.3924,0.55474-2.4981,0.55153-2.4865,0.74911-2.6995,0.05265-0.05674,1.1456-0.95296,2.4288-1.9916,2.5402-2.0561,2.5239-2.0441,2.9899-2.1997,0.83069-0.27744,1.6911-0.06812,2.3364,0.56841,0.34671,0.34197,0.16729,0.0097,2.458,4.5522l0.26321,0.52194,1.6074,1.1075c1.1089,0.76405,1.6379,1.1412,1.7057,1.2162,0.36752,0.40625,0.34065,1.0496-0.0598,1.4316-0.33055,0.31529-0.7933,0.37373-1.2185,0.15388-0.04037-0.02088-0.84121-0.56618-1.7797-1.2118-1.1243-0.77347-1.7482-1.2161-1.8292-1.2978-0.11195-0.11285-0.1631-0.2041-0.57172-1.0198-0.24682-0.4927-0.4524-0.8922-0.45683-0.88777-0.0067,0.0067-1.0247,4.47-1.0384,4.5529-0.0024,0.01462,0.91462,1.1128,2.0379,2.4404s2.064,2.4547,2.0906,2.5046c0.08896,0.16706,0.13153,0.3489,0.34212,1.461,0.11523,0.60854,0.26707,1.4095,0.33742,1.78,0.62124,3.2711,0.57006,2.9738,0.5591,3.2481-0.01733,0.43378-0.15309,0.74581-0.4559,1.0479-0.14072,0.1404-0.20497,0.18558-0.39107,0.27502-0.28349,0.13625-0.40519,0.16479-0.70066,0.1643-0.27653-0.000438-0.44336-0.03825-0.67623-0.1532-0.40835-0.20157-0.73641-0.62359-0.84281-1.0842-0.03692-0.15984-1.0338-5.3885-1.0338-5.4223,0-0.01917-3.2951-3.6319-3.323-3.6433-0.0078-0.0031-0.18743,0.79852-0.39918,1.7816l-0.385,1.7874-0.15734,0.31503c-0.19153,0.38349-3.3109,5.646-3.4487,5.8181-0.3545,0.44276-0.92778,0.67513-1.4582,0.59105zm7.6288-23.194c-0.66994-0.11649-1.1396-0.37878-1.5125-0.84464-0.74934-0.93613-0.65639-2.2846,0.21443-3.1108,1.0988-1.0425,2.8826-0.75462,3.5998,0.58094,0.18639,0.3471,0.26571,0.6645,0.26815,1.073,0.004,0.66134-0.23575,1.2284-0.70946,1.6784-0.43176,0.41013-0.91137,0.60816-1.5127,0.62458-0.16132,0.0044-0.31775,0.0038-0.34762-0.0016z"/>
 </g>
</svg>
